SplineFontDB: 3.0
FontName: DroidSans
FullName: Droid Sans
FamilyName: Droid Sans
Weight: Book
Copyright: Digitized data copyright (c) 2007, Google Corporation.
Version: 1.00 build 114
ItalicAngle: 0
UnderlinePosition: -205
UnderlineWidth: 102
Ascent: 1638
Descent: 410
InvalidEm: 0
LayerCount: 2
Layer: 0 0 "Back" 1
Layer: 1 0 "Fore" 0
FSType: 8
OS2Version: 0
OS2_WeightWidthSlopeOnly: 0
OS2_UseTypoMetrics: 0
CreationTime: 1465983505
ModificationTime: 1466087990
OS2TypoAscent: 0
OS2TypoAOffset: 1
OS2TypoDescent: 0
OS2TypoDOffset: 1
OS2TypoLinegap: 0
OS2WinAscent: 0
OS2WinAOffset: 1
OS2WinDescent: 0
OS2WinDOffset: 1
HheadAscent: 0
HheadAOffset: 1
HheadDescent: 0
HheadDOffset: 1
OS2Vendor: 'PfEd'
DEI: 91125
Encoding: Custom
UnicodeInterp: none
NameList: AGL For New Fonts
DisplaySize: -48
AntiAlias: 1
FitToEm: 0
WinInfo: 0 26 9
BeginPrivate: 4
BlueValues 28 [-20 0 1096 1118 1462 1556 ]
OtherBlues 12 [-492 -492 ]
BlueShift 1 9
BlueScale 6 0.0125
EndPrivate
BeginChars: 965 120

StartChar: exclam
Encoding: 33 33 2
Width: 551
Flags: W
LayerCount: 2
Fore
SplineSet
336 414 m 1
 215 414 l 1
 164 1462 l 1
 387 1462 l 1
 336 414 l 1
147 111 m 0
 147 136 150 158 157 176 c 0
 164 193 173 208 184 218 c 0
 195 230 209 238 224 242 c 0
 239 248 256 250 274 250 c 0
 291 250 308 248 324 242 c 0
 339 238 353 230 364 218 c 0
 375 208 384 193 391 176 c 0
 398 158 401 136 401 111 c 0
 401 86 398 65 391 48 c 0
 384 30 375 15 364 4 c 0
 353 -7 339 -16 324 -21 c 0
 308 -26 291 -29 274 -29 c 0
 256 -29 239 -26 224 -21 c 0
 209 -16 195 -7 184 4 c 0
 173 15 164 30 157 48 c 0
 150 65 147 86 147 111 c 0
EndSplineSet
EndChar

StartChar: quotedbl
Encoding: 34 34 3
Width: 823
Flags: W
LayerCount: 2
Fore
SplineSet
330 1462 m 1
 289 934 l 1
 174 934 l 1
 133 1462 l 1
 330 1462 l 1
690 1462 m 1
 649 934 l 1
 535 934 l 1
 494 1462 l 1
 690 1462 l 1
EndSplineSet
EndChar

StartChar: numbersign
Encoding: 35 35 4
Width: 1323
Flags: W
LayerCount: 2
Fore
SplineSet
983 893 m 1
 920 565 l 1
 1200 565 l 1
 1200 428 l 1
 893 428 l 1
 811 0 l 1
 664 0 l 1
 748 428 l 1
 457 428 l 1
 375 0 l 1
 231 0 l 1
 309 428 l 1
 51 428 l 1
 51 565 l 1
 336 565 l 1
 401 893 l 1
 127 893 l 1
 127 1030 l 1
 426 1030 l 1
 508 1462 l 1
 655 1462 l 1
 573 1030 l 1
 866 1030 l 1
 950 1462 l 1
 1094 1462 l 1
 1010 1030 l 1
 1272 1030 l 1
 1272 893 l 1
 983 893 l 1
483 565 m 1
 774 565 l 1
 838 893 l 1
 547 893 l 1
 483 565 l 1
EndSplineSet
EndChar

StartChar: dollar
Encoding: 36 36 5
Width: 1128
Flags: W
LayerCount: 2
Fore
SplineSet
985 446 m 0
 985 399 977 357 960 319 c 0
 943 281 920 248 888 220 c 0
 858 192 820 169 776 150 c 0
 731 132 681 119 625 111 c 1
 625 -119 l 1
 487 -119 l 1
 487 102 l 1
 454 102 420 104 386 106 c 0
 352 110 319 114 287 120 c 0
 255 126 225 133 197 142 c 0
 169 151 144 161 123 172 c 1
 123 344 l 1
 145 333 170 322 200 312 c 0
 228 300 259 291 291 282 c 0
 323 273 356 266 390 260 c 0
 423 255 456 252 487 252 c 1
 487 686 l 1
 428 706 376 727 332 749 c 0
 289 771 253 796 224 824 c 0
 195 853 174 885 160 922 c 0
 146 959 139 1002 139 1051 c 0
 139 1096 147 1136 164 1174 c 0
 180 1210 203 1243 234 1270 c 0
 264 1298 300 1321 344 1338 c 0
 386 1356 434 1368 487 1374 c 1
 487 1554 l 1
 625 1554 l 1
 625 1378 l 1
 692 1375 753 1366 810 1352 c 0
 866 1338 916 1321 961 1300 c 1
 895 1155 l 1
 858 1172 816 1187 769 1200 c 0
 722 1214 674 1223 625 1227 c 1
 625 805 l 1
 684 784 736 763 780 741 c 0
 826 719 863 694 894 666 c 0
 924 639 947 607 962 572 c 0
 977 536 985 494 985 446 c 0
809 446 m 0
 809 468 806 488 799 506 c 0
 792 525 782 542 768 556 c 0
 753 572 734 585 711 598 c 0
 688 611 659 623 625 635 c 1
 625 262 l 1
 687 271 733 292 764 325 c 0
 794 358 809 398 809 446 c 0
315 1049 m 0
 315 1025 318 1004 324 984 c 0
 329 966 339 948 352 932 c 0
 365 917 383 903 405 890 c 0
 427 877 454 865 487 854 c 1
 487 1223 l 1
 428 1212 384 1192 356 1162 c 0
 329 1133 315 1095 315 1049 c 0
EndSplineSet
EndChar

StartChar: percent
Encoding: 37 37 6
Width: 1690
Flags: W
LayerCount: 2
Fore
SplineSet
250 1026 m 0
 250 916 262 834 286 778 c 0
 309 724 348 696 401 696 c 0
 505 696 557 806 557 1026 c 0
 557 1245 505 1354 401 1354 c 0
 348 1354 309 1327 286 1272 c 0
 262 1218 250 1136 250 1026 c 0
705 1026 m 0
 705 954 699 889 687 832 c 0
 675 775 657 726 632 687 c 0
 607 648 576 618 538 596 c 0
 499 576 454 565 401 565 c 0
 352 565 309 576 272 596 c 0
 235 618 203 648 178 687 c 0
 153 726 134 775 121 832 c 0
 108 889 102 954 102 1026 c 0
 102 1098 108 1162 120 1219 c 0
 131 1276 149 1324 174 1362 c 0
 198 1402 229 1431 266 1452 c 0
 304 1473 349 1483 401 1483 c 0
 451 1483 495 1473 532 1452 c 0
 570 1431 602 1402 628 1362 c 0
 653 1324 672 1276 686 1219 c 0
 698 1162 705 1098 705 1026 c 0
1133 440 m 0
 1133 330 1145 248 1168 193 c 0
 1192 138 1231 111 1284 111 c 0
 1388 111 1440 221 1440 440 c 0
 1440 659 1388 768 1284 768 c 0
 1231 768 1192 741 1168 686 c 0
 1145 632 1133 550 1133 440 c 0
1587 440 m 0
 1587 368 1581 304 1570 246 c 0
 1558 190 1540 141 1515 102 c 0
 1490 63 1459 32 1420 12 c 0
 1382 -10 1337 -20 1284 -20 c 0
 1235 -20 1191 -10 1154 12 c 0
 1117 32 1086 63 1060 102 c 0
 1036 141 1017 190 1004 246 c 0
 991 304 985 368 985 440 c 0
 985 512 991 576 1002 633 c 0
 1014 690 1032 738 1056 776 c 0
 1081 816 1112 845 1150 866 c 0
 1187 887 1232 897 1284 897 c 0
 1334 897 1378 887 1416 866 c 0
 1453 845 1485 816 1510 776 c 0
 1535 738 1554 690 1568 633 c 0
 1580 576 1587 512 1587 440 c 0
1331 1462 m 1
 520 0 l 1
 362 0 l 1
 1174 1462 l 1
 1331 1462 l 1
EndSplineSet
EndChar

StartChar: ampersand
Encoding: 38 38 7
Width: 1438
Flags: W
LayerCount: 2
Fore
SplineSet
422 1165 m 0
 422 1142 425 1120 430 1098 c 0
 435 1077 444 1055 454 1034 c 0
 466 1012 480 990 497 968 c 0
 514 945 535 922 559 897 c 1
 598 920 632 942 661 963 c 0
 690 984 713 1005 732 1026 c 0
 751 1047 765 1070 774 1093 c 0
 783 1116 788 1142 788 1169 c 0
 788 1193 784 1215 776 1236 c 0
 767 1256 755 1273 740 1288 c 0
 724 1303 705 1314 683 1322 c 0
 661 1331 636 1335 608 1335 c 0
 551 1335 505 1320 472 1290 c 0
 439 1261 422 1219 422 1165 c 0
557 141 m 0
 596 141 631 145 664 152 c 0
 697 160 727 171 755 184 c 0
 783 197 809 213 833 231 c 0
 857 249 880 268 901 289 c 1
 514 696 l 1
 479 674 449 652 422 632 c 0
 395 610 373 588 354 564 c 0
 336 540 322 514 313 486 c 0
 304 457 299 424 299 387 c 0
 299 351 305 318 316 288 c 0
 328 257 345 231 367 210 c 0
 389 188 416 171 448 159 c 0
 480 147 516 141 557 141 c 0
109 381 m 0
 109 433 116 479 129 520 c 0
 142 561 162 598 188 631 c 0
 213 664 244 695 282 724 c 0
 318 753 361 781 408 809 c 1
 387 833 367 858 347 884 c 0
 327 909 310 936 294 966 c 0
 280 994 267 1026 258 1058 c 0
 249 1092 244 1127 244 1165 c 0
 244 1215 252 1260 269 1300 c 0
 286 1339 310 1373 341 1400 c 0
 372 1428 411 1449 457 1464 c 0
 503 1478 555 1485 614 1485 c 0
 669 1485 719 1478 762 1464 c 0
 806 1449 843 1428 874 1400 c 0
 904 1373 927 1339 943 1300 c 0
 959 1260 967 1215 967 1165 c 0
 967 1122 959 1083 942 1046 c 0
 925 1010 903 976 875 946 c 0
 847 914 815 886 778 860 c 0
 742 833 704 808 664 784 c 1
 1016 412 l 1
 1034 431 1050 451 1064 471 c 0
 1079 491 1092 512 1103 535 c 0
 1114 558 1124 582 1134 608 c 0
 1142 634 1150 663 1157 694 c 1
 1341 694 l 1
 1331 650 1319 610 1306 572 c 0
 1292 536 1276 501 1258 468 c 0
 1241 435 1221 405 1200 376 c 0
 1178 348 1154 320 1128 293 c 1
 1405 0 l 1
 1180 0 l 1
 1012 172 l 1
 979 142 947 115 915 92 c 0
 883 68 849 48 813 32 c 0
 777 15 738 2 697 -6 c 0
 656 -16 609 -20 557 -20 c 0
 487 -20 424 -11 368 6 c 0
 313 24 266 50 228 84 c 0
 189 119 160 161 140 210 c 0
 119 260 109 317 109 381 c 0
EndSplineSet
EndChar

StartChar: quotesingle
Encoding: 39 39 8
Width: 463
Flags: W
LayerCount: 2
Fore
SplineSet
330 1462 m 1
 289 934 l 1
 174 934 l 1
 133 1462 l 1
 330 1462 l 1
EndSplineSet
EndChar

StartChar: parenleft
Encoding: 40 40 9
Width: 616
Flags: W
LayerCount: 2
Fore
SplineSet
82 561 m 0
 82 644 88 726 100 808 c 0
 112 888 130 967 155 1044 c 0
 180 1120 211 1193 248 1264 c 0
 286 1334 331 1400 383 1462 c 1
 555 1462 l 1
 462 1333 391 1192 342 1038 c 0
 294 884 270 726 270 563 c 0
 270 484 276 405 288 326 c 0
 301 247 319 170 342 95 c 0
 366 20 396 -53 431 -124 c 0
 466 -195 507 -261 553 -324 c 1
 383 -324 l 1
 331 -264 286 -200 248 -131 c 0
 211 -62 180 10 155 84 c 0
 130 160 112 237 100 317 c 0
 88 397 82 478 82 561 c 0
EndSplineSet
EndChar

StartChar: parenright
Encoding: 41 41 10
Width: 616
Flags: W
LayerCount: 2
Fore
SplineSet
535 561 m 0
 535 478 529 397 517 317 c 0
 505 237 486 160 462 84 c 0
 436 10 405 -62 368 -131 c 0
 330 -200 285 -264 233 -324 c 1
 63 -324 l 1
 109 -261 150 -195 185 -124 c 0
 220 -53 250 20 274 95 c 0
 298 170 316 247 328 326 c 0
 340 405 346 484 346 563 c 0
 346 726 322 884 274 1038 c 0
 226 1192 155 1333 61 1462 c 1
 233 1462 l 1
 285 1400 330 1334 368 1264 c 0
 405 1193 436 1120 462 1044 c 0
 486 967 505 888 517 808 c 0
 529 726 535 644 535 561 c 0
EndSplineSet
EndChar

StartChar: asterisk
Encoding: 42 42 11
Width: 1128
Flags: W
LayerCount: 2
Fore
SplineSet
664 1556 m 1
 621 1163 l 1
 1018 1274 l 1
 1044 1081 l 1
 666 1053 l 1
 911 727 l 1
 733 631 l 1
 557 989 l 1
 399 631 l 1
 215 727 l 1
 457 1053 l 1
 82 1081 l 1
 111 1274 l 1
 502 1163 l 1
 459 1556 l 1
 664 1556 l 1
EndSplineSet
EndChar

StartChar: plus
Encoding: 43 43 12
Width: 1128
Flags: W
LayerCount: 2
Fore
SplineSet
489 647 m 1
 102 647 l 1
 102 797 l 1
 489 797 l 1
 489 1186 l 1
 639 1186 l 1
 639 797 l 1
 1026 797 l 1
 1026 647 l 1
 639 647 l 1
 639 262 l 1
 489 262 l 1
 489 647 l 1
EndSplineSet
EndChar

StartChar: comma
Encoding: 44 44 13
Width: 512
Flags: W
LayerCount: 2
Fore
SplineSet
362 238 m 1
 377 215 l 1
 368 179 356 141 344 100 c 0
 330 59 316 18 300 -23 c 0
 285 -64 268 -106 252 -146 c 0
 234 -188 218 -227 201 -264 c 1
 63 -264 l 1
 73 -223 83 -181 92 -137 c 0
 102 -93 112 -49 120 -6 c 0
 130 38 138 81 145 122 c 0
 152 164 159 203 164 238 c 1
 362 238 l 1
EndSplineSet
EndChar

StartChar: hyphen
Encoding: 45 45 14
Width: 659
Flags: W
LayerCount: 2
Fore
SplineSet
82 465 m 1
 82 633 l 1
 578 633 l 1
 578 465 l 1
 82 465 l 1
EndSplineSet
EndChar

StartChar: period
Encoding: 46 46 15
Width: 549
Flags: W
LayerCount: 2
Fore
SplineSet
147 111 m 0
 147 136 150 158 157 176 c 0
 164 193 173 208 184 218 c 0
 195 230 209 238 224 242 c 0
 239 248 256 250 274 250 c 0
 291 250 308 248 324 242 c 0
 339 238 353 230 364 218 c 0
 375 208 384 193 391 176 c 0
 398 158 401 136 401 111 c 0
 401 86 398 65 391 48 c 0
 384 30 375 15 364 4 c 0
 353 -7 339 -16 324 -21 c 0
 308 -26 291 -29 274 -29 c 0
 256 -29 239 -26 224 -21 c 0
 209 -16 195 -7 184 4 c 0
 173 15 164 30 157 48 c 0
 150 65 147 86 147 111 c 0
EndSplineSet
EndChar

StartChar: slash
Encoding: 47 47 16
Width: 764
Flags: W
LayerCount: 2
Fore
SplineSet
743 1462 m 1
 199 0 l 1
 20 0 l 1
 565 1462 l 1
 743 1462 l 1
EndSplineSet
EndChar

StartChar: zero
Encoding: 48 48 17
Width: 1128
Flags: W
LayerCount: 2
Fore
SplineSet
1032 733 m 0
 1032 615 1024 509 1006 416 c 0
 990 323 962 244 924 179 c 0
 887 114 838 65 779 31 c 0
 720 -3 648 -20 563 -20 c 0
 484 -20 416 -3 358 31 c 0
 299 65 251 114 212 179 c 0
 174 244 146 323 126 416 c 0
 108 509 98 615 98 733 c 0
 98 851 106 957 124 1050 c 0
 140 1143 168 1222 204 1286 c 0
 242 1351 290 1400 348 1434 c 0
 408 1468 479 1485 563 1485 c 0
 642 1485 711 1468 770 1434 c 0
 829 1401 877 1352 916 1288 c 0
 955 1223 984 1144 1003 1051 c 0
 1022 958 1032 852 1032 733 c 0
283 733 m 0
 283 633 288 546 298 471 c 0
 308 396 324 334 346 284 c 0
 368 235 397 198 432 172 c 0
 468 148 512 135 563 135 c 0
 614 135 658 147 694 172 c 0
 730 197 760 234 782 283 c 0
 806 332 822 394 832 470 c 0
 843 544 848 632 848 733 c 0
 848 833 843 920 832 995 c 0
 822 1070 806 1132 782 1181 c 0
 760 1230 730 1267 694 1292 c 0
 658 1317 614 1329 563 1329 c 0
 512 1329 468 1317 432 1292 c 0
 397 1267 368 1230 346 1181 c 0
 324 1132 308 1070 298 995 c 0
 288 920 283 833 283 733 c 0
EndSplineSet
EndChar

StartChar: one
Encoding: 49 49 18
Width: 1128
Flags: W
LayerCount: 2
Fore
SplineSet
711 0 m 1
 535 0 l 1
 535 913 l 2
 535 942 535 972 536 1005 c 0
 536 1038 536 1070 538 1102 c 0
 538 1135 540 1166 540 1196 c 0
 542 1225 542 1251 543 1274 c 1
 532 1262 522 1252 513 1243 c 0
 504 1234 496 1226 486 1218 c 0
 478 1210 468 1202 458 1192 c 0
 448 1184 436 1173 422 1161 c 2
 274 1040 l 1
 178 1163 l 1
 561 1462 l 1
 711 1462 l 1
 711 0 l 1
EndSplineSet
EndChar

StartChar: two
Encoding: 50 50 19
Width: 1128
Flags: W
LayerCount: 2
Fore
SplineSet
1008 0 m 1
 96 0 l 1
 96 156 l 1
 446 537 l 2
 496 591 541 640 580 685 c 0
 619 730 653 773 680 816 c 0
 708 859 729 902 744 944 c 0
 759 988 766 1034 766 1085 c 0
 766 1124 760 1159 749 1189 c 0
 738 1219 722 1244 700 1266 c 0
 680 1286 655 1302 626 1313 c 0
 597 1324 565 1329 530 1329 c 0
 467 1329 410 1316 358 1290 c 0
 308 1265 259 1232 213 1192 c 1
 111 1311 l 1
 138 1335 166 1358 197 1378 c 0
 228 1400 261 1418 296 1433 c 0
 331 1448 369 1460 408 1470 c 0
 447 1478 489 1483 532 1483 c 0
 596 1483 654 1474 706 1456 c 0
 757 1438 801 1412 837 1378 c 0
 873 1345 901 1304 920 1256 c 0
 940 1207 950 1153 950 1092 c 0
 950 1035 941 981 924 930 c 0
 906 879 882 828 850 778 c 0
 820 729 782 679 740 629 c 0
 696 579 650 527 600 473 c 2
 319 174 l 1
 319 166 l 1
 1008 166 l 1
 1008 0 l 1
EndSplineSet
EndChar

StartChar: three
Encoding: 51 51 20
Width: 1128
Flags: W
LayerCount: 2
Fore
SplineSet
961 1120 m 0
 961 1071 953 1027 938 987 c 0
 923 947 901 912 874 883 c 0
 846 854 813 830 774 810 c 0
 735 792 692 778 645 770 c 1
 645 764 l 1
 763 749 853 712 914 652 c 0
 975 591 1006 513 1006 416 c 0
 1006 352 995 293 974 240 c 0
 952 187 919 141 875 102 c 0
 831 63 775 33 708 12 c 0
 641 -9 561 -20 469 -20 c 0
 396 -20 328 -14 264 -3 c 0
 199 8 139 29 82 59 c 1
 82 229 l 1
 140 198 203 175 270 158 c 0
 338 141 403 133 465 133 c 0
 526 133 579 140 624 153 c 0
 669 166 706 185 734 210 c 0
 764 235 785 265 798 301 c 0
 812 337 819 377 819 422 c 0
 819 467 810 506 792 538 c 0
 775 571 750 598 717 618 c 0
 684 640 644 655 598 665 c 0
 550 675 497 680 438 680 c 2
 305 680 l 1
 305 831 l 1
 438 831 l 2
 492 831 540 838 582 851 c 0
 624 864 659 883 688 908 c 0
 716 933 737 962 752 996 c 0
 767 1030 774 1067 774 1108 c 0
 774 1143 768 1174 756 1201 c 0
 744 1228 727 1252 705 1270 c 0
 683 1290 657 1304 626 1314 c 0
 595 1324 561 1329 524 1329 c 0
 453 1329 390 1318 336 1296 c 0
 281 1273 229 1244 180 1208 c 1
 88 1333 l 1
 113 1354 142 1373 172 1391 c 0
 204 1409 237 1425 274 1438 c 0
 311 1452 350 1463 392 1471 c 0
 433 1479 477 1483 524 1483 c 0
 596 1483 659 1474 714 1456 c 0
 768 1438 813 1413 850 1380 c 0
 887 1348 914 1310 933 1266 c 0
 952 1221 961 1173 961 1120 c 0
EndSplineSet
EndChar

StartChar: four
Encoding: 52 52 21
Width: 1128
Flags: W
LayerCount: 2
Fore
SplineSet
1087 328 m 1
 874 328 l 1
 874 0 l 1
 698 0 l 1
 698 328 l 1
 23 328 l 1
 23 487 l 1
 686 1470 l 1
 874 1470 l 1
 874 494 l 1
 1087 494 l 1
 1087 328 l 1
698 494 m 1
 698 850 l 2
 698 887 698 926 700 968 c 0
 700 1008 702 1048 703 1088 c 0
 704 1126 706 1163 708 1197 c 0
 709 1231 710 1259 711 1282 c 1
 702 1282 l 1
 697 1269 692 1254 684 1238 c 0
 678 1221 670 1205 662 1188 c 0
 653 1172 645 1156 636 1141 c 0
 627 1126 619 1113 612 1102 c 2
 201 494 l 1
 698 494 l 1
EndSplineSet
EndChar

StartChar: five
Encoding: 53 53 22
Width: 1128
Flags: W
LayerCount: 2
Fore
SplineSet
545 897 m 0
 611 897 672 888 730 870 c 0
 786 851 836 824 878 788 c 0
 921 752 954 707 978 654 c 0
 1002 601 1014 539 1014 469 c 0
 1014 393 1003 325 980 264 c 0
 957 203 924 152 879 110 c 0
 834 68 779 36 714 14 c 0
 648 -9 572 -20 487 -20 c 0
 453 -20 420 -18 386 -15 c 0
 354 -12 322 -7 292 0 c 0
 261 6 232 14 205 24 c 0
 178 34 153 46 131 59 c 1
 131 231 l 1
 153 216 179 202 208 190 c 0
 238 178 269 168 302 160 c 0
 335 152 368 146 400 142 c 0
 434 137 464 135 492 135 c 0
 545 135 592 141 633 154 c 0
 674 166 709 185 738 211 c 0
 767 237 789 270 804 309 c 0
 819 348 827 395 827 449 c 0
 827 544 798 617 739 668 c 0
 680 718 595 743 483 743 c 0
 465 743 446 742 424 740 c 0
 404 739 382 737 362 734 c 0
 340 731 320 728 302 726 c 0
 282 722 266 720 252 717 c 1
 162 774 l 1
 217 1462 l 1
 907 1462 l 1
 907 1296 l 1
 375 1296 l 1
 336 877 l 1
 357 881 386 885 420 890 c 0
 456 895 497 897 545 897 c 0
EndSplineSet
EndChar

StartChar: six
Encoding: 54 54 23
Width: 1128
Flags: W
LayerCount: 2
Fore
SplineSet
113 625 m 0
 113 695 116 765 124 834 c 0
 130 903 143 970 160 1034 c 0
 178 1097 202 1156 233 1211 c 0
 264 1266 303 1313 350 1354 c 0
 397 1394 454 1426 520 1448 c 0
 586 1472 663 1483 752 1483 c 0
 765 1483 779 1483 794 1482 c 0
 809 1481 825 1480 840 1478 c 0
 856 1477 871 1475 886 1472 c 0
 900 1470 913 1467 924 1464 c 1
 924 1309 l 1
 901 1317 874 1323 845 1327 c 0
 816 1331 787 1333 758 1333 c 0
 698 1333 645 1326 600 1312 c 0
 554 1297 514 1277 481 1251 c 0
 448 1225 420 1194 398 1158 c 0
 375 1122 357 1082 343 1038 c 0
 329 995 319 948 312 899 c 0
 305 850 301 798 299 745 c 1
 311 745 l 1
 324 769 340 792 360 812 c 0
 378 834 401 852 426 866 c 0
 451 882 480 893 512 902 c 0
 543 911 579 915 618 915 c 0
 681 915 739 905 790 886 c 0
 841 866 885 837 921 799 c 0
 957 761 985 714 1004 660 c 0
 1024 604 1034 542 1034 471 c 0
 1034 395 1024 327 1003 266 c 0
 982 205 953 154 914 112 c 0
 875 69 829 37 774 14 c 0
 719 -9 658 -20 590 -20 c 0
 523 -20 461 -7 402 19 c 0
 344 45 294 85 251 138 c 0
 208 191 175 258 150 339 c 0
 125 420 113 515 113 625 c 0
588 133 m 0
 628 133 664 140 698 154 c 0
 730 167 759 188 783 216 c 0
 807 243 826 278 838 320 c 0
 852 363 858 413 858 471 c 0
 858 518 852 560 842 596 c 0
 830 634 814 665 792 691 c 0
 770 717 742 737 710 751 c 0
 676 765 638 772 594 772 c 0
 549 772 508 764 472 748 c 0
 434 733 403 712 377 688 c 0
 351 662 331 634 316 602 c 0
 302 570 295 538 295 506 c 0
 295 461 301 417 314 372 c 0
 326 328 344 288 368 253 c 0
 393 218 423 189 460 166 c 0
 497 144 539 133 588 133 c 0
EndSplineSet
EndChar

StartChar: seven
Encoding: 55 55 24
Width: 1128
Flags: W
LayerCount: 2
Fore
SplineSet
281 0 m 1
 844 1296 l 1
 90 1296 l 1
 90 1462 l 1
 1030 1462 l 1
 1030 1317 l 1
 475 0 l 1
 281 0 l 1
EndSplineSet
EndChar

StartChar: eight
Encoding: 56 56 25
Width: 1128
Flags: W
LayerCount: 2
Fore
SplineSet
565 1485 m 0
 621 1485 674 1478 724 1463 c 0
 773 1448 817 1426 854 1397 c 0
 892 1368 922 1331 944 1287 c 0
 966 1243 977 1192 977 1133 c 0
 977 1088 970 1048 957 1012 c 0
 944 976 925 944 902 914 c 0
 879 886 851 860 819 836 c 0
 787 814 752 793 715 774 c 1
 754 753 792 730 828 705 c 0
 866 680 898 651 928 620 c 0
 956 588 980 552 998 513 c 0
 1015 474 1024 430 1024 381 c 0
 1024 320 1013 264 990 214 c 0
 968 165 937 123 896 88 c 0
 856 53 808 27 752 8 c 0
 695 -11 633 -20 565 -20 c 0
 492 -20 426 -11 370 7 c 0
 312 25 264 51 226 84 c 0
 186 118 157 159 136 208 c 0
 116 257 106 312 106 373 c 0
 106 423 114 468 128 508 c 0
 144 548 164 584 189 616 c 0
 214 648 244 676 279 701 c 0
 314 726 350 747 389 766 c 1
 356 787 326 809 297 834 c 0
 268 858 244 885 222 915 c 0
 202 945 185 978 172 1014 c 0
 160 1051 154 1091 154 1135 c 0
 154 1193 165 1244 188 1288 c 0
 210 1331 240 1368 278 1397 c 0
 316 1426 360 1448 410 1463 c 0
 459 1478 511 1485 565 1485 c 0
285 371 m 0
 285 336 290 303 301 274 c 0
 312 244 328 218 351 198 c 0
 374 176 402 160 437 148 c 0
 472 137 513 131 561 131 c 0
 608 131 649 137 684 148 c 0
 720 160 750 177 774 198 c 0
 798 220 816 246 828 277 c 0
 840 308 846 342 846 379 c 0
 846 414 840 445 826 473 c 0
 814 501 795 527 770 551 c 0
 746 575 717 598 683 619 c 0
 649 640 611 661 569 682 c 2
 539 696 l 1
 455 656 392 610 349 558 c 0
 306 507 285 444 285 371 c 0
563 1333 m 0
 492 1333 436 1315 394 1280 c 0
 353 1245 332 1193 332 1126 c 0
 332 1088 338 1055 350 1028 c 0
 361 1001 377 976 398 955 c 0
 419 934 444 914 472 898 c 0
 502 880 533 864 567 848 c 1
 599 863 629 879 658 896 c 0
 686 913 710 933 732 955 c 0
 752 977 769 1002 781 1030 c 0
 793 1058 799 1090 799 1126 c 0
 799 1193 778 1245 736 1280 c 0
 694 1315 636 1333 563 1333 c 0
EndSplineSet
EndChar

StartChar: nine
Encoding: 57 57 26
Width: 1128
Flags: W
LayerCount: 2
Fore
SplineSet
1028 838 m 0
 1028 768 1024 698 1018 628 c 0
 1010 559 998 492 980 429 c 0
 963 366 939 306 908 252 c 0
 877 196 838 149 791 109 c 0
 744 69 687 38 621 14 c 0
 555 -8 478 -20 389 -20 c 0
 376 -20 362 -20 347 -19 c 0
 332 -18 316 -17 301 -16 c 2
 256 -10 l 2
 241 -8 228 -5 217 -2 c 1
 217 154 l 1
 240 145 267 139 296 135 c 0
 325 131 354 129 383 129 c 0
 473 129 547 145 605 176 c 0
 663 207 709 250 743 304 c 0
 777 357 801 420 816 491 c 0
 830 562 839 638 842 717 c 1
 829 717 l 1
 816 693 800 671 781 650 c 0
 762 629 740 611 715 596 c 0
 690 581 661 569 629 560 c 0
 597 551 561 547 522 547 c 0
 459 547 401 557 350 576 c 0
 299 596 255 625 219 663 c 0
 183 701 155 748 136 802 c 0
 116 858 106 920 106 991 c 0
 106 1067 116 1136 138 1196 c 0
 158 1258 188 1309 226 1352 c 0
 265 1394 312 1426 366 1449 c 0
 422 1472 483 1483 551 1483 c 0
 618 1483 681 1470 739 1444 c 0
 797 1418 847 1378 890 1325 c 0
 933 1272 966 1204 991 1124 c 0
 1016 1042 1028 947 1028 838 c 0
553 1329 m 0
 513 1329 476 1322 444 1309 c 0
 410 1296 382 1275 358 1247 c 0
 334 1219 316 1184 302 1142 c 0
 290 1099 283 1049 283 991 c 0
 283 944 288 902 300 866 c 0
 310 828 327 797 349 771 c 0
 371 745 398 725 432 711 c 0
 464 697 503 690 547 690 c 0
 592 690 633 698 670 714 c 0
 707 729 738 750 764 774 c 0
 790 800 810 828 824 860 c 0
 839 892 846 924 846 956 c 0
 846 1001 840 1045 828 1090 c 0
 815 1134 797 1174 772 1210 c 0
 748 1245 718 1274 681 1296 c 0
 644 1318 602 1329 553 1329 c 0
EndSplineSet
EndChar

StartChar: colon
Encoding: 58 58 27
Width: 549
Flags: W
LayerCount: 2
Fore
SplineSet
147 111 m 0
 147 136 150 158 157 176 c 0
 164 193 173 208 184 218 c 0
 195 230 209 238 224 242 c 0
 239 248 256 250 274 250 c 0
 291 250 308 248 324 242 c 0
 339 238 353 230 364 218 c 0
 375 208 384 193 391 176 c 0
 398 158 401 136 401 111 c 0
 401 86 398 65 391 48 c 0
 384 30 375 15 364 4 c 0
 353 -7 339 -16 324 -21 c 0
 308 -26 291 -29 274 -29 c 0
 256 -29 239 -26 224 -21 c 0
 209 -16 195 -7 184 4 c 0
 173 15 164 30 157 48 c 0
 150 65 147 86 147 111 c 0
147 987 m 0
 147 1013 150 1035 157 1052 c 0
 164 1070 173 1084 184 1096 c 0
 195 1106 209 1114 224 1119 c 0
 239 1124 256 1126 274 1126 c 0
 291 1126 308 1124 324 1119 c 0
 339 1114 353 1106 364 1096 c 0
 375 1084 384 1070 391 1052 c 0
 398 1035 401 1013 401 987 c 0
 401 962 398 941 391 924 c 0
 384 907 375 892 364 881 c 0
 353 870 339 861 324 856 c 0
 308 851 291 848 274 848 c 0
 256 848 239 851 224 856 c 0
 209 861 195 870 184 881 c 0
 173 892 164 907 157 924 c 0
 150 941 147 962 147 987 c 0
EndSplineSet
EndChar

StartChar: semicolon
Encoding: 59 59 28
Width: 549
Flags: W
LayerCount: 2
Fore
SplineSet
362 238 m 1
 377 215 l 1
 368 179 356 141 344 100 c 0
 330 59 316 18 300 -23 c 0
 285 -64 268 -106 252 -146 c 0
 234 -188 218 -227 201 -264 c 1
 63 -264 l 1
 73 -223 83 -181 92 -137 c 0
 102 -93 112 -49 120 -6 c 0
 130 38 138 81 145 122 c 0
 152 164 159 203 164 238 c 1
 362 238 l 1
147 987 m 0
 147 1013 150 1035 157 1052 c 0
 164 1070 173 1084 184 1096 c 0
 195 1106 209 1114 224 1119 c 0
 239 1124 256 1126 274 1126 c 0
 291 1126 308 1124 324 1119 c 0
 339 1114 353 1106 364 1096 c 0
 375 1084 384 1070 391 1052 c 0
 398 1035 401 1013 401 987 c 0
 401 962 398 941 391 924 c 0
 384 907 375 892 364 881 c 0
 353 870 339 861 324 856 c 0
 308 851 291 848 274 848 c 0
 256 848 239 851 224 856 c 0
 209 861 195 870 184 881 c 0
 173 892 164 907 157 924 c 0
 150 941 147 962 147 987 c 0
EndSplineSet
EndChar

StartChar: less
Encoding: 60 60 29
Width: 1128
Flags: W
LayerCount: 2
Fore
SplineSet
1026 238 m 1
 102 662 l 1
 102 764 l 1
 1026 1245 l 1
 1026 1085 l 1
 291 721 l 1
 1026 399 l 1
 1026 238 l 1
EndSplineSet
EndChar

StartChar: equal
Encoding: 61 61 30
Width: 1128
Flags: W
LayerCount: 2
Fore
SplineSet
102 852 m 1
 102 1001 l 1
 1026 1001 l 1
 1026 852 l 1
 102 852 l 1
102 442 m 1
 102 592 l 1
 1026 592 l 1
 1026 442 l 1
 102 442 l 1
EndSplineSet
EndChar

StartChar: greater
Encoding: 62 62 31
Width: 1128
Flags: W
LayerCount: 2
Fore
SplineSet
102 399 m 1
 838 721 l 1
 102 1085 l 1
 102 1245 l 1
 1026 764 l 1
 1026 662 l 1
 102 238 l 1
 102 399 l 1
EndSplineSet
EndChar

StartChar: question
Encoding: 63 63 32
Width: 872
Flags: W
LayerCount: 2
Fore
SplineSet
281 414 m 1
 281 451 l 2
 281 489 284 523 288 554 c 0
 294 585 302 613 316 640 c 0
 328 667 346 693 368 718 c 0
 390 744 418 771 451 799 c 0
 483 826 510 851 533 874 c 0
 556 896 574 918 588 942 c 0
 603 964 614 989 620 1016 c 0
 628 1042 631 1073 631 1108 c 0
 631 1140 626 1169 616 1196 c 0
 606 1222 592 1244 572 1264 c 0
 554 1282 530 1297 502 1308 c 0
 473 1318 440 1323 403 1323 c 0
 348 1323 295 1314 245 1297 c 0
 195 1280 147 1260 100 1237 c 1
 37 1382 l 1
 91 1410 149 1434 212 1454 c 0
 275 1473 338 1483 403 1483 c 0
 465 1483 521 1474 570 1458 c 0
 620 1440 662 1416 697 1384 c 0
 732 1352 758 1313 777 1266 c 0
 796 1220 805 1168 805 1110 c 0
 805 1065 800 1026 792 990 c 0
 782 956 769 923 751 893 c 0
 733 863 711 834 684 806 c 0
 657 778 626 748 590 717 c 0
 555 687 527 661 505 638 c 0
 483 616 466 594 453 574 c 0
 440 552 432 531 427 509 c 0
 422 487 420 461 420 432 c 2
 420 414 l 1
 281 414 l 1
233 111 m 0
 233 136 236 158 243 176 c 0
 250 193 259 208 270 218 c 0
 281 230 295 238 310 242 c 0
 325 248 342 250 360 250 c 0
 377 250 394 248 410 242 c 0
 425 238 439 230 450 218 c 0
 461 208 470 193 477 176 c 0
 484 158 487 136 487 111 c 0
 487 86 484 65 477 48 c 0
 470 30 461 15 450 4 c 0
 439 -7 425 -16 410 -21 c 0
 394 -26 377 -29 360 -29 c 0
 342 -29 325 -26 310 -21 c 0
 295 -16 281 -7 270 4 c 0
 259 15 250 30 243 48 c 0
 236 65 233 86 233 111 c 0
EndSplineSet
EndChar

StartChar: at
Encoding: 64 64 33
Width: 1774
Flags: W
LayerCount: 2
Fore
SplineSet
1665 731 m 0
 1665 690 1662 648 1656 606 c 0
 1649 565 1640 525 1628 488 c 0
 1615 450 1600 415 1580 382 c 0
 1562 350 1539 322 1514 298 c 0
 1489 274 1460 255 1428 242 c 0
 1395 228 1360 221 1321 221 c 0
 1291 221 1264 226 1240 236 c 0
 1215 246 1194 259 1177 276 c 0
 1160 293 1146 312 1134 334 c 0
 1124 355 1116 378 1112 401 c 1
 1108 401 l 1
 1096 376 1081 353 1063 331 c 0
 1045 309 1024 290 1000 274 c 0
 977 257 950 244 920 235 c 0
 891 226 858 221 823 221 c 0
 772 221 726 230 686 249 c 0
 647 268 613 294 586 328 c 0
 559 361 538 402 524 449 c 0
 509 496 502 549 502 606 c 0
 502 673 512 735 532 791 c 0
 551 847 580 895 616 936 c 0
 654 977 698 1008 751 1031 c 0
 804 1054 863 1065 928 1065 c 0
 958 1065 988 1064 1018 1061 c 0
 1048 1058 1077 1055 1104 1050 c 0
 1131 1045 1156 1040 1180 1034 c 0
 1202 1029 1222 1023 1237 1018 c 1
 1214 602 l 2
 1213 587 1213 576 1212 566 c 2
 1212 545 l 1
 1212 533 l 1
 1212 526 l 2
 1212 491 1216 462 1222 439 c 0
 1230 416 1239 398 1250 385 c 0
 1261 372 1274 362 1288 358 c 0
 1303 352 1318 350 1333 350 c 0
 1364 350 1391 360 1414 380 c 0
 1437 401 1457 428 1472 463 c 0
 1488 498 1500 538 1508 585 c 0
 1516 632 1520 681 1520 733 c 0
 1520 828 1506 912 1477 986 c 0
 1448 1059 1409 1121 1358 1172 c 0
 1307 1223 1247 1261 1178 1288 c 0
 1108 1314 1032 1327 950 1327 c 0
 837 1327 738 1308 652 1272 c 0
 566 1234 494 1183 436 1116 c 0
 377 1050 333 972 303 880 c 0
 273 790 258 690 258 582 c 0
 258 481 271 392 298 314 c 0
 324 236 362 170 414 117 c 0
 464 64 528 23 604 -4 c 0
 679 -31 766 -45 864 -45 c 0
 905 -45 945 -43 984 -38 c 0
 1024 -33 1062 -27 1100 -19 c 0
 1136 -11 1172 -2 1205 8 c 0
 1238 19 1269 30 1298 41 c 1
 1298 -100 l 1
 1241 -125 1176 -145 1104 -160 c 0
 1032 -175 953 -182 866 -182 c 0
 747 -182 640 -165 546 -131 c 0
 453 -97 374 -48 308 18 c 0
 244 82 194 162 160 256 c 0
 126 349 109 456 109 575 c 0
 109 700 129 817 168 926 c 0
 207 1034 264 1128 336 1207 c 0
 410 1286 498 1349 602 1394 c 0
 705 1439 821 1462 950 1462 c 0
 1054 1462 1150 1445 1237 1412 c 0
 1324 1378 1400 1330 1464 1266 c 0
 1527 1204 1577 1127 1612 1036 c 0
 1647 946 1665 844 1665 731 c 0
662 602 m 0
 662 513 679 449 712 410 c 0
 746 370 791 350 848 350 c 0
 885 350 916 358 942 372 c 0
 968 388 989 409 1006 436 c 0
 1023 464 1035 497 1044 536 c 0
 1053 574 1058 616 1061 662 c 2
 1075 915 l 1
 1056 920 1034 925 1008 930 c 0
 983 934 956 936 928 936 c 0
 879 936 837 926 804 907 c 0
 770 888 742 862 722 831 c 0
 700 800 685 764 676 724 c 0
 667 684 662 643 662 602 c 0
EndSplineSet
EndChar

StartChar: A
Encoding: 65 65 34
Width: 1245
Flags: W
LayerCount: 2
Fore
SplineSet
1055 0 m 1
 895 453 l 1
 350 453 l 1
 188 0 l 1
 0 0 l 1
 537 1468 l 1
 707 1468 l 1
 1245 0 l 1
 1055 0 l 1
836 618 m 1
 688 1042 l 2
 684 1054 679 1069 674 1086 c 0
 668 1103 662 1122 656 1142 c 0
 650 1162 644 1183 638 1204 c 0
 632 1226 626 1247 621 1268 c 1
 616 1247 611 1226 605 1204 c 0
 599 1182 593 1161 587 1140 c 0
 581 1120 575 1102 570 1084 c 0
 564 1068 559 1053 555 1042 c 2
 410 618 l 1
 836 618 l 1
EndSplineSet
EndChar

StartChar: B
Encoding: 66 66 35
Width: 1200
Flags: HW
LayerCount: 2
Fore
SplineSet
670 1118 m 0
 733 1118 790 1106 841 1082 c 0
 892 1058 936 1022 972 974 c 0
 1009 927 1037 868 1057 797 c 0
 1077 726 1087 644 1087 551 c 0
 1087 457 1077 374 1057 304 c 0
 1037 232 1009 173 972 125 c 0
 936 77 892 41 841 16 c 0
 790 -8 733 -20 670 -20 c 0
 631 -20 595 -16 563 -7 c 0
 531 2 502 13 476 28 c 0
 451 42 428 59 408 78 c 0
 389 97 371 118 356 139 c 1
 344 139 l 1
 307 0 l 1
 174 0 l 1
 174 1556 l 1
 356 1556 l 1
 356 1180 l 2
 356 1157 356 1132 355 1106 c 0
 354 1079 353 1055 352 1032 c 0
 351 1005 349 979 348 954 c 1
 356 954 l 1
 371 977 389 999 408 1019 c 0
 427 1039 450 1056 476 1071 c 0
 501 1086 530 1097 562 1106 c 0
 594 1114 630 1118 670 1118 c 0
635 967 m 0
 582 967 537 958 502 942 c 0
 466 924 437 899 416 864 c 0
 394 829 378 786 370 734 c 0
 360 682 356 621 356 551 c 0
 356 484 360 424 370 372 c 0
 378 319 394 275 416 240 c 0
 437 204 466 177 502 158 c 0
 538 140 583 131 637 131 c 0
 727 131 793 167 836 240 c 0
 878 313 899 417 899 553 c 0
 899 692 878 795 836 864 c 0
 793 933 726 967 635 967 c 0
EndSplineSet
EndChar

StartChar: C
Encoding: 67 67 36
Width: 948
Flags: HW
LayerCount: 2
Fore
SplineSet
594 -20 m 0
 527 -20 464 -10 405 12 c 0
 346 32 295 66 252 112 c 0
 209 157 175 216 150 286 c 0
 125 358 113 443 113 543 c 0
 113 648 126 736 151 810 c 0
 176 882 211 942 256 988 c 0
 300 1033 352 1066 411 1087 c 0
 470 1108 534 1118 602 1118 c 0
 654 1118 705 1112 754 1101 c 0
 804 1090 846 1076 879 1059 c 1
 825 905 l 1
 810 912 793 918 774 924 c 0
 755 931 736 936 716 942 c 0
 696 946 676 950 657 954 c 0
 638 956 619 958 602 958 c 0
 497 958 421 924 373 858 c 0
 325 790 301 686 301 545 c 0
 301 404 325 302 374 236 c 0
 422 172 495 139 594 139 c 0
 648 139 697 145 740 158 c 0
 784 170 824 184 860 201 c 1
 860 39 l 1
 824 20 786 5 744 -5 c 0
 704 -15 653 -20 594 -20 c 0
EndSplineSet
EndChar

StartChar: D
Encoding: 68 68 37
Width: 1200
Flags: HW
LayerCount: 2
Fore
SplineSet
852 147 m 1
 844 147 l 1
 829 124 812 103 792 82 c 0
 773 62 750 44 724 29 c 0
 699 14 670 2 638 -7 c 0
 606 -16 570 -20 530 -20 c 0
 468 -20 411 -8 360 16 c 0
 309 40 265 76 228 124 c 0
 191 171 163 230 143 301 c 0
 123 372 113 454 113 547 c 0
 113 641 123 724 143 794 c 0
 163 866 191 925 228 973 c 0
 265 1021 309 1057 360 1082 c 0
 411 1106 468 1118 530 1118 c 0
 569 1118 605 1114 637 1105 c 0
 669 1096 698 1085 724 1070 c 0
 749 1055 772 1038 792 1019 c 0
 812 1000 829 979 844 958 c 1
 856 958 l 1
 854 981 852 1002 850 1023 c 0
 849 1040 847 1058 846 1076 c 0
 845 1095 844 1109 844 1120 c 2
 844 1556 l 1
 1026 1556 l 1
 1026 0 l 1
 879 0 l 1
 852 147 l 1
565 131 m 0
 616 131 658 139 694 154 c 0
 728 169 757 193 778 224 c 0
 800 255 816 294 826 342 c 0
 837 388 843 443 844 506 c 2
 844 547 l 2
 844 614 840 674 830 726 c 0
 822 779 806 823 784 858 c 0
 763 894 734 921 698 940 c 0
 662 958 617 967 563 967 c 0
 473 967 407 931 364 858 c 0
 322 785 301 681 301 545 c 0
 301 406 322 302 364 234 c 0
 407 165 474 131 565 131 c 0
EndSplineSet
EndChar

StartChar: E
Encoding: 69 69 38
Width: 1716
Flags: HW
LayerCount: 2
Fore
SplineSet
217 1117 m 1
 1499 1117 l 1
 1499 947 l 1
 217 947 l 1
 217 1117 l 1
217 357 m 1
 1499 357 l 1
 1499 187 l 1
 217 187 l 1
 217 357 l 1
217 737 m 1
 1499 737 l 1
 1499 567 l 1
 217 567 l 1
 217 737 l 1
EndSplineSet
EndChar

StartChar: F
Encoding: 70 70 39
Width: 1716
Flags: HW
LayerCount: 2
Fore
SplineSet
1616 597 m 1
 1223 204 l 1
 1103 324 l 1
 1336 557 l 1
 117 557 l 1
 117 727 l 1
 1336 727 l 1
 1103 960 l 1
 1223 1080 l 1
 1616 687 l 1
 1616 597 l 1
EndSplineSet
EndChar

StartChar: G
Encoding: 71 71 40
Width: 1061
Flags: HW
LayerCount: 2
Fore
SplineSet
402 1395 m 0
 402 1435 412 1464 432 1482 c 0
 453 1500 478 1509 508 1509 c 0
 523 1509 536 1507 550 1502 c 0
 562 1498 574 1491 584 1482 c 0
 593 1473 601 1461 606 1446 c 0
 612 1432 615 1415 615 1395 c 0
 615 1356 604 1328 584 1308 c 0
 562 1290 537 1280 508 1280 c 0
 478 1280 453 1289 432 1308 c 0
 412 1327 402 1356 402 1395 c 0
EndSplineSet
Refer: 72 103 N 1 0 0 1 0 0 2
EndChar

StartChar: H
Encoding: 72 72 41
Width: 1128
Flags: HW
LayerCount: 2
Fore
SplineSet
102 647 m 1
 102 797 l 1
 1026 797 l 1
 1026 647 l 1
 102 647 l 1
449 373 m 0
 449 396.333333333 452 415.833333333 458 431.5 c 128
 464 447.166666667 472.166666667 460 482.5 470 c 128
 492.833333333 480 504.833333333 487.166666667 518.5 491.5 c 128
 532.166666667 495.833333333 547 498 563 498 c 0
 578.333333333 498 593 495.833333333 607 491.5 c 128
 621 487.166666667 633.333333333 480 644 470 c 128
 654.666666667 460 663 447.166666667 669 431.5 c 128
 675 415.833333333 678 396.333333333 678 373 c 0
 678 351 675 332.166666667 669 316.5 c 128
 663 300.833333333 654.666666667 287.833333333 644 277.5 c 128
 633.333333333 267.166666667 621 259.666666667 607 255 c 128
 593 250.333333333 578.333333333 248 563 248 c 0
 547 248 532.166666667 250.333333333 518.5 255 c 128
 504.833333333 259.666666667 492.833333333 267.166666667 482.5 277.5 c 128
 472.166666667 287.833333333 464 300.833333333 458 316.5 c 128
 452 332.166666667 449 351 449 373 c 0
449 1071 m 0
 449 1094.33333333 452 1113.83333333 458 1129.5 c 128
 464 1145.16666667 472.166666667 1158 482.5 1168 c 128
 492.833333333 1178 504.833333333 1185.16666667 518.5 1189.5 c 128
 532.166666667 1193.83333333 547 1196 563 1196 c 0
 578.333333333 1196 593 1193.83333333 607 1189.5 c 128
 621 1185.16666667 633.333333333 1178 644 1168 c 128
 654.666666667 1158 663 1145.16666667 669 1129.5 c 128
 675 1113.83333333 678 1094.33333333 678 1071 c 0
 678 1049 675 1030.16666667 669 1014.5 c 128
 663 998.833333333 654.666666667 985.833333333 644 975.5 c 128
 633.333333333 965.166666667 621 957.666666667 607 953 c 128
 593 948.333333333 578.333333333 946 563 946 c 0
 547 946 532.166666667 948.333333333 518.5 953 c 128
 504.833333333 957.666666667 492.833333333 965.166666667 482.5 975.5 c 128
 472.166666667 985.833333333 464 998.833333333 458 1014.5 c 128
 452 1030.16666667 449 1049 449 1071 c 0
EndSplineSet
EndChar

StartChar: I
Encoding: 73 73 42
Width: 1128
Flags: HW
LayerCount: 2
Fore
SplineSet
350 442 m 1
 102 442 l 1
 102 592 l 1
 420 592 l 1
 541 852 l 1
 102 852 l 1
 102 1001 l 1
 610 1001 l 1
 743 1284 l 1
 881 1225 l 1
 776 1001 l 1
 1026 1001 l 1
 1026 852 l 1
 707 852 l 1
 584 592 l 1
 1026 592 l 1
 1026 442 l 1
 514 442 l 1
 385 164 l 1
 248 221 l 1
 350 442 l 1
EndSplineSet
EndChar

StartChar: J
Encoding: 74 74 43
Width: 555
Flags: W
LayerCount: 2
Fore
SplineSet
-29 -389 m 0
 -63 -389 -93 -387 -118 -382 c 0
 -143 -378 -165 -372 -184 -365 c 1
 -184 -205 l 1
 -161 -211 -137 -216 -111 -220 c 0
 -85 -223 -57 -225 -27 -225 c 0
 -2 -225 22 -222 48 -216 c 0
 72 -209 95 -198 116 -181 c 0
 136 -164 152 -141 165 -112 c 0
 178 -83 184 -45 184 0 c 2
 184 1462 l 1
 371 1462 l 1
 371 20 l 2
 371 -50 361 -111 342 -162 c 0
 322 -213 294 -256 260 -290 c 0
 224 -323 182 -348 134 -364 c 0
 84 -381 30 -389 -29 -389 c 0
EndSplineSet
EndChar

StartChar: K
Encoding: 75 75 44
Width: 1128
Flags: HW
LayerCount: 2
Fore
SplineSet
530 444 m 0
 505.333333333 454.666666667 483.833333333 463.666666667 465.5 471 c 128
 447.166666667 478.333333333 430.5 484.166666667 415.5 488.5 c 128
 400.5 492.833333333 386.166666667 495.833333333 372.5 497.5 c 128
 358.833333333 499.166666667 344.666666667 500 330 500 c 0
 311.333333333 500 292 496.833333333 272 490.5 c 128
 252 484.166666667 232.166666667 475.5 212.5 464.5 c 128
 192.833333333 453.5 173.666666667 440.666666667 155 426 c 128
 136.333333333 411.333333333 118.666666667 395.666666667 102 379 c 1
 102 541 l 1
 168.666666667 613 251.333333333 649 350 649 c 0
 369.333333333 649 387.333333333 648.166666667 404 646.5 c 128
 420.666666667 644.833333333 438.166666667 641.833333333 456.5 637.5 c 128
 474.833333333 633.166666667 495.166666667 626.833333333 517.5 618.5 c 128
 539.833333333 610.166666667 566.666666667 599.333333333 598 586 c 0
 622.666666667 575.333333333 644.166666667 566.333333333 662.5 559 c 128
 680.833333333 551.666666667 697.833333333 545.833333333 713.5 541.5 c 128
 729.166666667 537.166666667 743.666666667 534.166666667 757 532.5 c 128
 770.333333333 530.833333333 784.333333333 530 799 530 c 0
 817.666666667 530 837 533.166666667 857 539.5 c 128
 877 545.833333333 896.833333333 554.5 916.5 565.5 c 128
 936.166666667 576.5 955.333333333 589.333333333 974 604 c 128
 992.666666667 618.666666667 1010 634.333333333 1026 651 c 1
 1026 489 l 1
 960 417 877.333333333 381 778 381 c 0
 758.666666667 381 740.666666667 381.833333333 724 383.5 c 128
 707.333333333 385.166666667 689.833333333 388.166666667 671.5 392.5 c 128
 653.166666667 396.833333333 632.833333333 403.166666667 610.5 411.5 c 128
 588.166666667 419.833333333 561.333333333 430.666666667 530 444 c 0
530 854 m 0
 505.333333333 864.666666667 483.833333333 873.5 465.5 880.5 c 128
 447.166666667 887.5 430.5 893.166666667 415.5 897.5 c 128
 400.5 901.833333333 386.166666667 904.833333333 372.5 906.5 c 128
 358.833333333 908.166666667 344.666666667 909 330 909 c 0
 311.333333333 909 292 905.833333333 272 899.5 c 128
 252 893.166666667 232.166666667 884.666666667 212.5 874 c 128
 192.833333333 863.333333333 173.666666667 850.666666667 155 836 c 128
 136.333333333 821.333333333 118.666666667 805.333333333 102 788 c 1
 102 950 l 1
 168.666666667 1022.66666667 251.333333333 1059 350 1059 c 0
 369.333333333 1059 387.333333333 1058.16666667 404 1056.5 c 128
 420.666666667 1054.83333333 438.166666667 1051.66666667 456.5 1047 c 128
 474.833333333 1042.33333333 495.166666667 1035.83333333 517.5 1027.5 c 128
 539.833333333 1019.16666667 566.666666667 1008.33333333 598 995 c 0
 622.666666667 984.333333333 644.166666667 975.5 662.5 968.5 c 128
 680.833333333 961.5 697.833333333 955.833333333 713.5 951.5 c 128
 729.166666667 947.166666667 743.666666667 944.166666667 757 942.5 c 128
 770.333333333 940.833333333 784.333333333 940 799 940 c 0
 817.666666667 940 837 943.166666667 857 949.5 c 128
 877 955.833333333 896.833333333 964.333333333 916.5 975 c 128
 936.166666667 985.666666667 955.333333333 998.5 974 1013.5 c 128
 992.666666667 1028.5 1010 1044.33333333 1026 1061 c 1
 1026 899 l 1
 961.333333333 827 878.666666667 791 778 791 c 0
 758.666666667 791 740.666666667 791.833333333 724 793.5 c 128
 707.333333333 795.166666667 689.833333333 798.166666667 671.5 802.5 c 128
 653.166666667 806.833333333 632.833333333 813.166666667 610.5 821.5 c 128
 588.166666667 829.833333333 561.333333333 840.666666667 530 854 c 0
EndSplineSet
EndChar

StartChar: L
Encoding: 76 76 45
Width: 1006
Flags: W
LayerCount: 2
Fore
SplineSet
199 0 m 1
 199 1462 l 1
 385 1462 l 1
 385 166 l 1
 958 166 l 1
 958 0 l 1
 199 0 l 1
EndSplineSet
EndChar

StartChar: M
Encoding: 77 77 46
Width: 1128
Flags: HW
LayerCount: 2
Fore
SplineSet
102 399 m 1
 840 721 l 1
 102 1083 l 1
 102 1245 l 1
 1026 764 l 1
 1026 662 l 1
 102 238 l 1
 102 399 l 1
102 0 m 1
 102 150 l 1
 1026 150 l 1
 1026 0 l 1
 102 0 l 1
EndSplineSet
EndChar

StartChar: N
Encoding: 78 78 47
Width: 1206
Flags: HW
LayerCount: 2
Fore
SplineSet
860 0 m 1
 860 707 l 2
 860 794 842 859 808 902 c 0
 772 945 718 967 643 967 c 0
 589 967 544 958 507 941 c 0
 470 924 441 898 418 864 c 0
 396 830 380 788 370 739 c 0
 361 690 356 633 356 569 c 2
 356 0 l 1
 174 0 l 1
 174 1098 l 1
 322 1098 l 1
 348 950 l 1
 358 950 l 1
 375 979 394 1004 418 1024 c 0
 440 1046 466 1063 493 1077 c 0
 520 1091 549 1101 580 1108 c 0
 611 1115 642 1118 674 1118 c 0
 796 1118 888 1086 950 1022 c 0
 1011 959 1042 857 1042 717 c 2
 1042 0 l 1
 860 0 l 1
EndSplineSet
EndChar

StartChar: O
Encoding: 79 79 48
Width: 1128
Flags: HW
LayerCount: 2
Fore
SplineSet
1026 238 m 1
 102 662 l 1
 102 764 l 1
 1026 1245 l 1
 1026 1085 l 1
 291 721 l 1
 1026 399 l 1
 1026 238 l 1
102 0 m 1
 102 150 l 1
 1026 150 l 1
 1026 0 l 1
 102 0 l 1
EndSplineSet
EndChar

StartChar: P
Encoding: 80 80 49
Width: 1716
Flags: HW
LayerCount: 2
Fore
SplineSet
100 597 m 1
 100 687 l 1
 493 1080 l 1
 613 960 l 1
 380 727 l 1
 1599 727 l 1
 1599 557 l 1
 380 557 l 1
 613 324 l 1
 493 204 l 1
 100 597 l 1
EndSplineSet
EndChar

StartChar: Q
Encoding: 81 81 50
Width: 1200
Flags: HW
LayerCount: 2
Fore
SplineSet
565 131 m 0
 616 131 658 139 694 154 c 0
 728 169 757 193 778 224 c 0
 800 255 816 294 826 342 c 0
 837 388 843 443 844 506 c 2
 844 547 l 2
 844 614 840 674 830 726 c 0
 822 779 806 823 784 858 c 0
 763 894 734 921 698 940 c 0
 662 958 617 967 563 967 c 0
 473 967 407 931 364 858 c 0
 322 785 301 681 301 545 c 0
 301 406 322 302 364 234 c 0
 407 165 474 131 565 131 c 0
530 -20 m 0
 468 -20 411 -8 360 16 c 0
 309 40 265 76 228 124 c 0
 191 171 163 230 143 301 c 0
 123 372 113 454 113 547 c 0
 113 641 123 724 143 794 c 0
 163 866 191 925 228 973 c 0
 265 1021 309 1057 360 1082 c 0
 411 1106 468 1118 530 1118 c 0
 569 1118 605 1114 637 1104 c 0
 669 1096 698 1084 723 1068 c 0
 748 1054 771 1036 791 1016 c 0
 811 995 829 973 844 950 c 1
 852 950 l 1
 879 1098 l 1
 1026 1098 l 1
 1026 -492 l 1
 844 -492 l 1
 844 -23 l 2
 844 -10 845 6 846 25 c 0
 847 44 849 63 850 81 c 0
 852 102 854 124 856 147 c 1
 844 147 l 1
 829 124 812 103 792 82 c 0
 773 62 750 44 724 29 c 0
 699 14 670 2 638 -7 c 0
 606 -16 570 -20 530 -20 c 0
EndSplineSet
EndChar

StartChar: R
Encoding: 82 82 51
Width: 817
Flags: HW
LayerCount: 2
Fore
SplineSet
649 1118 m 0
 668 1118 690 1117 714 1116 c 0
 738 1114 759 1111 776 1108 c 1
 752 940 l 1
 733 943 714 946 694 948 c 0
 675 951 656 952 639 952 c 0
 597 952 559 944 524 926 c 0
 489 910 460 885 434 854 c 0
 410 822 390 784 376 740 c 0
 363 695 356 646 356 592 c 2
 356 0 l 1
 174 0 l 1
 174 1098 l 1
 322 1098 l 1
 344 897 l 1
 352 897 l 1
 369 926 386 953 406 980 c 0
 424 1007 446 1030 470 1050 c 0
 493 1071 520 1087 549 1100 c 0
 578 1112 612 1118 649 1118 c 0
EndSplineSet
EndChar

StartChar: S
Encoding: 83 83 52
Width: 924
Flags: HW
LayerCount: 2
Fore
SplineSet
831 301 m 0
 831 248 821 201 802 161 c 0
 783 121 755 88 718 60 c 0
 682 34 638 13 587 0 c 0
 536 -13 478 -20 414 -20 c 0
 341 -20 279 -14 227 -2 c 0
 175 9 129 26 90 49 c 1
 90 215 l 1
 111 204 134 194 159 184 c 0
 184 173 211 164 239 156 c 0
 267 148 296 142 326 136 c 0
 355 132 385 129 414 129 c 0
 457 129 494 133 524 140 c 0
 555 147 580 158 598 172 c 0
 618 185 631 202 640 222 c 0
 649 241 653 263 653 287 c 0
 653 308 650 326 643 343 c 0
 636 360 624 376 606 392 c 0
 589 409 565 425 534 442 c 0
 503 459 464 477 416 498 c 0
 368 519 325 539 286 559 c 0
 248 579 216 601 189 626 c 0
 162 651 142 679 128 712 c 0
 113 744 106 782 106 827 c 0
 106 874 115 915 134 952 c 0
 152 988 178 1018 211 1043 c 0
 244 1068 284 1086 331 1099 c 0
 378 1112 430 1118 487 1118 c 0
 552 1118 611 1111 664 1097 c 0
 718 1083 769 1065 817 1042 c 1
 754 895 l 1
 711 914 666 931 620 946 c 0
 575 960 528 967 481 967 c 0
 413 967 363 956 330 934 c 0
 297 911 281 879 281 838 c 0
 281 815 285 794 292 777 c 0
 300 760 313 743 332 728 c 0
 351 713 376 697 407 682 c 0
 438 666 477 648 524 629 c 0
 572 609 615 589 652 569 c 0
 690 549 722 526 749 502 c 0
 776 476 796 448 810 416 c 0
 824 384 831 346 831 301 c 0
EndSplineSet
EndChar

StartChar: T
Encoding: 84 84 53
Width: 694
Flags: HW
LayerCount: 2
Fore
SplineSet
506 129 m 0
 518 129 532 130 546 131 c 0
 562 132 576 134 590 136 c 0
 604 138 617 140 628 143 c 0
 640 146 649 148 655 150 c 1
 655 12 l 1
 646 8 635 4 622 0 c 0
 609 -4 594 -8 578 -10 c 0
 562 -14 545 -16 528 -18 c 0
 511 -19 494 -20 477 -20 c 0
 436 -20 397 -15 362 -4 c 0
 327 7 296 25 270 51 c 0
 245 77 225 112 210 156 c 0
 195 201 188 257 188 324 c 2
 188 961 l 1
 33 961 l 1
 33 1042 l 1
 188 1120 l 1
 266 1350 l 1
 371 1350 l 1
 371 1098 l 1
 647 1098 l 1
 647 961 l 1
 371 961 l 1
 371 324 l 2
 371 259 382 211 402 178 c 0
 424 145 458 129 506 129 c 0
EndSplineSet
EndChar

StartChar: U
Encoding: 85 85 54
Width: 1716
Flags: HW
LayerCount: 2
Fore
SplineSet
813 1500 m 1
 903 1500 l 1
 1295 1106 l 1
 1175 986 l 1
 943 1220 l 1
 943 0 l 1
 773 0 l 1
 773 1220 l 1
 539 986 l 1
 419 1106 l 1
 813 1500 l 1
EndSplineSet
EndChar

StartChar: V
Encoding: 86 86 55
Width: 1716
Flags: HW
LayerCount: 2
Fore
SplineSet
813 -7 m 1
 419 387 l 1
 539 507 l 1
 773 273 l 1
 773 1493 l 1
 943 1493 l 1
 943 273 l 1
 1175 507 l 1
 1295 387 l 1
 903 -7 l 1
 813 -7 l 1
EndSplineSet
EndChar

StartChar: W
Encoding: 87 87 56
Width: 1401
Flags: HW
LayerCount: 2
Fore
SplineSet
1276 745 m 0
 1276 622 1260 514 1228 420 c 0
 1196 328 1150 250 1089 188 c 0
 1028 125 954 78 866 47 c 0
 777 16 677 0 565 0 c 2
 199 0 l 1
 199 1462 l 1
 606 1462 l 2
 708 1462 800 1447 883 1416 c 0
 966 1385 1036 1340 1094 1280 c 0
 1152 1219 1197 1144 1228 1055 c 0
 1260 966 1276 862 1276 745 c 0
1079 739 m 0
 1079 836 1068 920 1046 992 c 0
 1024 1062 992 1121 950 1167 c 0
 908 1213 856 1247 795 1270 c 0
 734 1292 664 1303 586 1303 c 2
 385 1303 l 1
 385 160 l 1
 547 160 l 2
 723 160 856 209 945 306 c 0
 1034 403 1079 548 1079 739 c 0
EndSplineSet
EndChar

StartChar: X
Encoding: 88 88 57
Width: 1063
Flags: HW
LayerCount: 2
Fore
SplineSet
625 0 m 1
 438 0 l 1
 438 1298 l 1
 20 1298 l 1
 20 1462 l 1
 1042 1462 l 1
 1042 1298 l 1
 625 1298 l 1
 625 0 l 1
EndSplineSet
EndChar

StartChar: Y
Encoding: 89 89 58
Width: 1001
Flags: HW
LayerCount: 2
Fore
SplineSet
10 1098 m 1
 199 1098 l 1
 414 485 l 2
 423 458 433 430 442 401 c 0
 452 372 461 342 470 313 c 0
 478 284 485 255 491 228 c 0
 497 201 501 175 504 152 c 1
 510 152 l 1
 513 169 519 191 526 220 c 0
 533 249 542 279 550 312 c 0
 560 344 569 376 578 407 c 0
 588 438 597 465 604 487 c 2
 803 1098 l 1
 991 1098 l 1
 557 -143 l 2
 538 -197 518 -246 496 -288 c 0
 475 -332 450 -368 421 -398 c 0
 392 -428 359 -451 320 -468 c 0
 281 -484 235 -492 182 -492 c 0
 147 -492 117 -490 92 -486 c 0
 67 -483 45 -479 27 -475 c 1
 27 -330 l 1
 41 -333 59 -336 80 -338 c 0
 101 -341 124 -342 147 -342 c 0
 179 -342 207 -338 230 -330 c 0
 253 -323 274 -312 291 -297 c 0
 308 -282 323 -264 336 -243 c 0
 348 -222 359 -197 369 -170 c 2
 426 -10 l 1
 10 1098 l 1
EndSplineSet
EndChar

StartChar: Z
Encoding: 90 90 59
Width: 1292
Flags: HW
LayerCount: 2
Fore
SplineSet
1218 -492 m 5
 1218 -377 l 5
 594 537 l 5
 1202 1348 l 5
 1202 1462 l 5
 106 1462 l 5
 106 1298 l 5
 942 1298 l 5
 372 539 l 5
 964 -328 l 5
 41 -328 l 5
 41 -492 l 5
 1218 -492 l 5
EndSplineSet
EndChar

StartChar: bracketleft
Encoding: 91 91 60
Width: 621
Flags: W
LayerCount: 2
Fore
SplineSet
569 -324 m 1
 164 -324 l 1
 164 1462 l 1
 569 1462 l 1
 569 1313 l 1
 346 1313 l 1
 346 -174 l 1
 569 -174 l 1
 569 -324 l 1
EndSplineSet
EndChar

StartChar: backslash
Encoding: 92 92 61
Width: 764
Flags: W
LayerCount: 2
Fore
SplineSet
201 1462 m 1
 745 0 l 1
 567 0 l 1
 23 1462 l 1
 201 1462 l 1
EndSplineSet
EndChar

StartChar: bracketright
Encoding: 93 93 62
Width: 621
Flags: W
LayerCount: 2
Fore
SplineSet
51 -174 m 1
 274 -174 l 1
 274 1313 l 1
 51 1313 l 1
 51 1462 l 1
 457 1462 l 1
 457 -324 l 1
 51 -324 l 1
 51 -174 l 1
EndSplineSet
EndChar

StartChar: asciicircum
Encoding: 94 94 63
Width: 1090
Flags: W
LayerCount: 2
Fore
SplineSet
41 549 m 1
 500 1473 l 1
 602 1473 l 1
 1049 549 l 1
 888 549 l 1
 551 1284 l 1
 202 549 l 1
 41 549 l 1
EndSplineSet
EndChar

StartChar: underscore
Encoding: 95 95 64
Width: 842
Flags: W
LayerCount: 2
Fore
SplineSet
846 -324 m 1
 -4 -324 l 1
 -4 -184 l 1
 846 -184 l 1
 846 -324 l 1
EndSplineSet
EndChar

StartChar: grave
Encoding: 96 96 65
Width: 1182
Flags: W
LayerCount: 2
Fore
SplineSet
786 1241 m 1
 666 1241 l 1
 643 1260 617 1283 590 1310 c 0
 563 1338 536 1367 510 1396 c 0
 485 1425 462 1454 440 1480 c 0
 420 1508 404 1530 393 1548 c 1
 393 1569 l 1
 612 1569 l 1
 623 1546 635 1522 650 1494 c 0
 664 1468 679 1440 694 1414 c 0
 709 1386 725 1360 741 1335 c 0
 757 1310 772 1287 786 1268 c 1
 786 1241 l 1
EndSplineSet
EndChar

StartChar: a
Encoding: 97 97 66
Width: 1087
Flags: W
LayerCount: 2
Fore
SplineSet
793 0 m 1
 756 152 l 1
 748 152 l 1
 726 122 704 96 682 74 c 0
 660 53 636 35 610 21 c 0
 584 7 555 -3 523 -10 c 0
 491 -17 454 -20 412 -20 c 0
 366 -20 324 -14 285 0 c 0
 246 12 213 32 184 60 c 0
 156 86 134 120 118 162 c 0
 102 202 94 251 94 307 c 0
 94 416 132 500 210 559 c 0
 286 618 404 650 561 655 c 2
 745 662 l 1
 745 731 l 2
 745 776 740 813 730 843 c 0
 721 873 707 897 688 916 c 0
 670 934 648 947 620 955 c 0
 594 963 563 967 528 967 c 0
 473 967 421 959 374 943 c 0
 326 927 280 908 236 885 c 1
 172 1022 l 1
 221 1049 276 1071 337 1090 c 0
 398 1109 461 1118 528 1118 c 0
 596 1118 655 1111 704 1098 c 0
 754 1084 795 1062 828 1032 c 0
 860 1003 884 965 900 919 c 0
 916 873 924 817 924 752 c 2
 924 0 l 1
 793 0 l 1
459 127 m 0
 500 127 537 133 572 146 c 0
 607 159 637 178 662 204 c 0
 687 229 707 262 722 300 c 0
 736 340 743 385 743 438 c 2
 743 537 l 1
 600 530 l 2
 540 527 490 521 449 510 c 0
 408 499 376 484 352 466 c 0
 327 446 310 424 299 396 c 0
 288 370 283 339 283 305 c 0
 283 244 299 199 332 170 c 0
 364 141 406 127 459 127 c 0
EndSplineSet
EndChar

StartChar: b
Encoding: 98 98 67
Width: 1200
Flags: W
LayerCount: 2
Fore
SplineSet
670 1118 m 0
 733 1118 790 1106 841 1082 c 0
 892 1058 936 1022 972 974 c 0
 1009 927 1037 868 1057 797 c 0
 1077 726 1087 644 1087 551 c 0
 1087 457 1077 374 1057 304 c 0
 1037 232 1009 173 972 125 c 0
 936 77 892 41 841 16 c 0
 790 -8 733 -20 670 -20 c 0
 631 -20 595 -16 563 -7 c 0
 531 2 502 13 476 28 c 0
 451 42 428 59 408 78 c 0
 389 97 371 118 356 139 c 1
 344 139 l 1
 307 0 l 1
 174 0 l 1
 174 1556 l 1
 356 1556 l 1
 356 1180 l 2
 356 1157 356 1132 355 1106 c 0
 354 1079 353 1055 352 1032 c 0
 351 1005 349 979 348 954 c 1
 356 954 l 1
 371 977 389 999 408 1019 c 0
 427 1039 450 1056 476 1071 c 0
 501 1086 530 1097 562 1106 c 0
 594 1114 630 1118 670 1118 c 0
635 967 m 0
 582 967 537 958 502 942 c 0
 466 924 437 899 416 864 c 0
 394 829 378 786 370 734 c 0
 360 682 356 621 356 551 c 0
 356 484 360 424 370 372 c 0
 378 319 394 275 416 240 c 0
 437 204 466 177 502 158 c 0
 538 140 583 131 637 131 c 0
 727 131 793 167 836 240 c 0
 878 313 899 417 899 553 c 0
 899 692 878 795 836 864 c 0
 793 933 726 967 635 967 c 0
EndSplineSet
EndChar

StartChar: c
Encoding: 99 99 68
Width: 948
Flags: W
LayerCount: 2
Fore
SplineSet
594 -20 m 0
 527 -20 464 -10 405 12 c 0
 346 32 295 66 252 112 c 0
 209 157 175 216 150 286 c 0
 125 358 113 443 113 543 c 0
 113 648 126 736 151 810 c 0
 176 882 211 942 256 988 c 0
 300 1033 352 1066 411 1087 c 0
 470 1108 534 1118 602 1118 c 0
 654 1118 705 1112 754 1101 c 0
 804 1090 846 1076 879 1059 c 1
 825 905 l 1
 810 912 793 918 774 924 c 0
 755 931 736 936 716 942 c 0
 696 946 676 950 657 954 c 0
 638 956 619 958 602 958 c 0
 497 958 421 924 373 858 c 0
 325 790 301 686 301 545 c 0
 301 404 325 302 374 236 c 0
 422 172 495 139 594 139 c 0
 648 139 697 145 740 158 c 0
 784 170 824 184 860 201 c 1
 860 39 l 1
 824 20 786 5 744 -5 c 0
 704 -15 653 -20 594 -20 c 0
EndSplineSet
EndChar

StartChar: d
Encoding: 100 100 69
Width: 1200
Flags: W
LayerCount: 2
Fore
SplineSet
852 147 m 1
 844 147 l 1
 829 124 812 103 792 82 c 0
 773 62 750 44 724 29 c 0
 699 14 670 2 638 -7 c 0
 606 -16 570 -20 530 -20 c 0
 468 -20 411 -8 360 16 c 0
 309 40 265 76 228 124 c 0
 191 171 163 230 143 301 c 0
 123 372 113 454 113 547 c 0
 113 641 123 724 143 794 c 0
 163 866 191 925 228 973 c 0
 265 1021 309 1057 360 1082 c 0
 411 1106 468 1118 530 1118 c 0
 569 1118 605 1114 637 1105 c 0
 669 1096 698 1085 724 1070 c 0
 749 1055 772 1038 792 1019 c 0
 812 1000 829 979 844 958 c 1
 856 958 l 1
 854 981 852 1002 850 1023 c 0
 849 1040 847 1058 846 1076 c 0
 845 1095 844 1109 844 1120 c 2
 844 1556 l 1
 1026 1556 l 1
 1026 0 l 1
 879 0 l 1
 852 147 l 1
565 131 m 0
 616 131 658 139 694 154 c 0
 728 169 757 193 778 224 c 0
 800 255 816 294 826 342 c 0
 837 388 843 443 844 506 c 2
 844 547 l 2
 844 614 840 674 830 726 c 0
 822 779 806 823 784 858 c 0
 763 894 734 921 698 940 c 0
 662 958 617 967 563 967 c 0
 473 967 407 931 364 858 c 0
 322 785 301 681 301 545 c 0
 301 406 322 302 364 234 c 0
 407 165 474 131 565 131 c 0
EndSplineSet
EndChar

StartChar: e
Encoding: 101 101 70
Width: 1096
Flags: W
LayerCount: 2
Fore
SplineSet
608 -20 m 0
 535 -20 468 -8 407 17 c 0
 346 42 294 78 250 125 c 0
 207 172 173 231 149 301 c 0
 125 371 113 451 113 541 c 0
 113 632 124 713 146 784 c 0
 168 855 199 916 239 966 c 0
 279 1015 327 1053 382 1079 c 0
 438 1105 500 1118 567 1118 c 0
 633 1118 692 1106 745 1082 c 0
 798 1059 842 1026 879 982 c 0
 916 940 944 888 964 828 c 0
 983 767 993 700 993 627 c 2
 993 514 l 1
 301 514 l 1
 304 385 332 291 382 230 c 0
 434 169 509 139 610 139 c 0
 644 139 676 141 704 144 c 0
 734 147 762 152 788 158 c 0
 816 165 842 173 867 182 c 0
 892 192 918 203 944 215 c 1
 944 53 l 1
 917 40 891 29 866 20 c 0
 840 11 814 3 786 -3 c 0
 760 -9 732 -13 702 -16 c 0
 674 -19 642 -20 608 -20 c 0
563 967 m 0
 487 967 427 941 382 889 c 0
 338 837 312 761 305 662 c 1
 797 662 l 1
 797 707 792 749 784 786 c 0
 774 824 760 856 742 883 c 0
 722 910 698 930 669 945 c 0
 640 960 604 967 563 967 c 0
EndSplineSet
EndChar

StartChar: f
Encoding: 102 102 71
Width: 674
Flags: W
LayerCount: 2
Fore
SplineSet
651 961 m 1
 406 961 l 1
 406 0 l 1
 223 0 l 1
 223 961 l 1
 29 961 l 1
 29 1036 l 1
 223 1104 l 1
 223 1200 l 2
 223 1271 230 1330 246 1378 c 0
 260 1424 282 1462 310 1490 c 0
 339 1518 374 1538 415 1550 c 0
 456 1561 503 1567 555 1567 c 0
 594 1567 630 1563 664 1556 c 0
 696 1548 726 1539 752 1530 c 1
 705 1389 l 1
 684 1396 662 1403 638 1408 c 0
 613 1414 588 1417 561 1417 c 0
 534 1417 511 1414 492 1408 c 0
 473 1401 457 1390 444 1374 c 0
 431 1358 422 1336 416 1308 c 0
 409 1281 406 1245 406 1202 c 2
 406 1098 l 1
 651 1098 l 1
 651 961 l 1
EndSplineSet
EndChar

StartChar: g
Encoding: 103 103 72
Width: 1061
Flags: W
LayerCount: 2
Fore
SplineSet
1020 1098 m 1
 1020 985 l 1
 823 958 l 1
 842 935 857 905 870 868 c 0
 883 832 889 791 889 745 c 0
 889 694 881 648 866 604 c 0
 850 562 826 524 794 493 c 0
 763 462 724 437 677 420 c 0
 630 402 576 393 514 393 c 0
 499 393 485 393 470 394 c 0
 455 394 443 395 434 397 c 1
 423 390 412 383 400 374 c 0
 390 366 380 357 370 346 c 0
 362 335 354 323 348 310 c 0
 343 297 340 282 340 266 c 0
 340 248 344 234 352 222 c 0
 360 212 371 203 384 197 c 0
 398 191 414 187 433 185 c 0
 452 183 471 182 492 182 c 2
 668 182 l 2
 730 182 782 174 825 158 c 0
 868 143 902 122 930 95 c 0
 956 68 976 37 988 0 c 0
 1000 -36 1006 -74 1006 -115 c 0
 1006 -174 995 -226 974 -273 c 0
 952 -320 919 -359 874 -392 c 0
 829 -424 773 -449 704 -466 c 0
 636 -483 556 -492 463 -492 c 0
 392 -492 329 -485 276 -471 c 0
 223 -457 178 -437 143 -410 c 0
 108 -383 81 -351 64 -314 c 0
 46 -276 37 -233 37 -186 c 0
 37 -146 44 -111 56 -80 c 0
 70 -50 87 -24 109 -2 c 0
 131 20 156 38 186 52 c 0
 214 66 245 77 276 84 c 1
 248 97 225 117 207 144 c 0
 189 171 180 203 180 238 c 0
 180 279 191 314 212 344 c 0
 233 373 267 402 313 430 c 1
 284 442 258 458 234 480 c 0
 211 500 191 524 174 552 c 0
 158 578 146 608 136 640 c 0
 128 672 123 705 123 739 c 0
 123 798 131 851 148 898 c 0
 165 945 189 984 222 1017 c 0
 255 1050 295 1075 344 1092 c 0
 393 1109 449 1118 514 1118 c 0
 539 1118 564 1116 590 1112 c 0
 617 1109 639 1104 657 1098 c 1
 1020 1098 l 1
209 -180 m 0
 209 -205 213 -228 222 -249 c 0
 231 -270 245 -289 264 -304 c 0
 284 -319 310 -332 342 -340 c 0
 375 -350 415 -354 463 -354 c 0
 587 -354 680 -335 742 -296 c 0
 803 -258 834 -203 834 -131 c 0
 834 -100 830 -75 822 -56 c 0
 814 -37 801 -22 782 -10 c 0
 764 0 740 8 710 12 c 0
 680 16 643 18 600 18 c 2
 424 18 l 2
 401 18 376 15 351 10 c 0
 326 5 302 -5 282 -20 c 0
 260 -35 243 -55 230 -80 c 0
 216 -106 209 -139 209 -180 c 0
301 745 m 0
 301 668 319 611 355 574 c 0
 391 537 442 518 508 518 c 0
 575 518 625 536 660 574 c 0
 694 610 711 669 711 748 c 0
 711 830 694 890 658 929 c 0
 624 968 573 987 506 987 c 0
 440 987 389 967 354 927 c 0
 319 887 301 826 301 745 c 0
EndSplineSet
EndChar

StartChar: h
Encoding: 104 104 73
Width: 1436
Flags: HW
LayerCount: 2
Fore
SplineSet
1237 0 m 1
 1051 0 l 1
 1051 682 l 1
 385 682 l 1
 385 0 l 1
 199 0 l 1
 199 1462 l 1
 385 1462 l 1
 385 846 l 1
 1051 846 l 1
 1051 1462 l 1
 1237 1462 l 1
 1237 0 l 1
EndSplineSet
EndChar

StartChar: i
Encoding: 105 105 74
Width: 530
Flags: W
LayerCount: 2
Fore
SplineSet
356 0 m 1
 174 0 l 1
 174 1098 l 1
 356 1098 l 1
 356 0 l 1
160 1395 m 0
 160 1435 170 1464 190 1482 c 0
 211 1500 236 1509 266 1509 c 0
 281 1509 294 1507 308 1502 c 0
 320 1498 332 1491 342 1482 c 0
 351 1473 359 1461 364 1446 c 0
 370 1432 373 1415 373 1395 c 0
 373 1356 362 1328 342 1308 c 0
 320 1290 295 1280 266 1280 c 0
 236 1280 211 1289 190 1308 c 0
 170 1327 160 1356 160 1395 c 0
EndSplineSet
EndChar

StartChar: j
Encoding: 106 106 75
Width: 530
Flags: W
LayerCount: 2
Fore
SplineSet
66 -492 m 0
 34 -492 8 -490 -14 -485 c 0
 -34 -480 -53 -474 -68 -467 c 1
 -68 -319 l 1
 -51 -326 -33 -331 -15 -334 c 0
 3 -338 24 -340 47 -340 c 0
 65 -340 82 -338 97 -332 c 0
 112 -328 126 -318 138 -306 c 0
 149 -292 158 -275 164 -254 c 0
 171 -232 174 -204 174 -170 c 2
 174 1098 l 1
 356 1098 l 1
 356 -158 l 2
 356 -209 350 -256 339 -296 c 0
 328 -338 310 -372 286 -402 c 0
 262 -430 232 -453 196 -468 c 0
 159 -484 116 -492 66 -492 c 0
160 1395 m 0
 160 1435 170 1464 190 1482 c 0
 211 1500 236 1509 266 1509 c 0
 281 1509 294 1507 308 1502 c 0
 320 1498 332 1491 342 1482 c 0
 351 1473 359 1461 364 1446 c 0
 370 1432 373 1415 373 1395 c 0
 373 1356 362 1328 342 1308 c 0
 320 1290 295 1280 266 1280 c 0
 236 1280 211 1289 190 1308 c 0
 170 1327 160 1356 160 1395 c 0
EndSplineSet
EndChar

StartChar: k
Encoding: 107 107 76
Width: 1016
Flags: W
LayerCount: 2
Fore
SplineSet
342 567 m 1
 477 737 l 1
 770 1098 l 1
 981 1098 l 1
 580 623 l 1
 1008 0 l 1
 799 0 l 1
 463 504 l 1
 354 422 l 1
 354 0 l 1
 174 0 l 1
 174 1556 l 1
 354 1556 l 1
 354 842 l 1
 338 567 l 1
 342 567 l 1
EndSplineSet
EndChar

StartChar: l
Encoding: 108 108 77
Width: 530
Flags: W
LayerCount: 2
Fore
SplineSet
356 0 m 1
 174 0 l 1
 174 1556 l 1
 356 1556 l 1
 356 0 l 1
EndSplineSet
EndChar

StartChar: m
Encoding: 109 109 78
Width: 1835
Flags: W
LayerCount: 2
Fore
SplineSet
1489 0 m 1
 1489 707 l 2
 1489 794 1472 859 1439 902 c 0
 1406 945 1354 967 1284 967 c 0
 1235 967 1194 959 1160 944 c 0
 1126 928 1098 905 1076 874 c 0
 1055 844 1039 806 1029 762 c 0
 1019 716 1014 665 1014 606 c 2
 1014 0 l 1
 831 0 l 1
 831 707 l 2
 831 794 814 859 782 902 c 0
 748 945 697 967 627 967 c 0
 576 967 533 958 498 941 c 0
 463 924 436 898 414 864 c 0
 394 830 378 788 370 739 c 0
 360 690 356 633 356 569 c 2
 356 0 l 1
 174 0 l 1
 174 1098 l 1
 322 1098 l 1
 348 950 l 1
 358 950 l 1
 374 979 393 1004 415 1024 c 0
 437 1046 461 1063 488 1077 c 0
 514 1091 542 1101 572 1108 c 0
 601 1115 631 1118 662 1118 c 0
 742 1118 808 1103 862 1074 c 0
 914 1045 954 999 979 936 c 1
 987 936 l 1
 1004 967 1025 994 1050 1017 c 0
 1074 1040 1100 1058 1130 1074 c 0
 1158 1088 1189 1100 1221 1107 c 0
 1253 1114 1286 1118 1319 1118 c 0
 1436 1118 1524 1086 1582 1022 c 0
 1642 959 1671 857 1671 717 c 2
 1671 0 l 1
 1489 0 l 1
EndSplineSet
EndChar

StartChar: n
Encoding: 110 110 79
Width: 1206
Flags: W
LayerCount: 2
Fore
SplineSet
860 0 m 1
 860 707 l 2
 860 794 842 859 808 902 c 0
 772 945 718 967 643 967 c 0
 589 967 544 958 507 941 c 0
 470 924 441 898 418 864 c 0
 396 830 380 788 370 739 c 0
 361 690 356 633 356 569 c 2
 356 0 l 1
 174 0 l 1
 174 1098 l 1
 322 1098 l 1
 348 950 l 1
 358 950 l 1
 375 979 394 1004 418 1024 c 0
 440 1046 466 1063 493 1077 c 0
 520 1091 549 1101 580 1108 c 0
 611 1115 642 1118 674 1118 c 0
 796 1118 888 1086 950 1022 c 0
 1011 959 1042 857 1042 717 c 2
 1042 0 l 1
 860 0 l 1
EndSplineSet
EndChar

StartChar: o
Encoding: 111 111 80
Width: 1182
Flags: W
LayerCount: 2
Fore
SplineSet
1069 551 m 0
 1069 460 1058 378 1036 308 c 0
 1013 236 981 177 940 128 c 0
 898 80 847 43 788 18 c 0
 729 -7 662 -20 588 -20 c 0
 519 -20 456 -7 398 18 c 0
 340 43 290 80 248 128 c 0
 205 177 172 236 148 308 c 0
 125 378 113 460 113 551 c 0
 113 642 124 722 146 792 c 0
 169 863 201 922 242 970 c 0
 283 1019 334 1056 394 1080 c 0
 453 1106 520 1118 594 1118 c 0
 663 1118 726 1106 784 1080 c 0
 842 1056 892 1019 934 970 c 0
 977 922 1010 863 1034 792 c 0
 1057 722 1069 642 1069 551 c 0
301 551 m 0
 301 412 324 307 370 236 c 0
 415 166 489 131 592 131 c 0
 695 131 768 166 814 236 c 0
 858 307 881 412 881 551 c 0
 881 690 858 794 812 864 c 0
 767 932 693 967 590 967 c 0
 487 967 414 932 368 864 c 0
 324 794 301 690 301 551 c 0
EndSplineSet
EndChar

StartChar: p
Encoding: 112 112 81
Width: 1200
Flags: W
LayerCount: 2
Fore
SplineSet
670 -20 m 0
 631 -20 595 -16 563 -7 c 0
 531 2 502 13 476 28 c 0
 451 42 428 59 408 78 c 0
 389 97 371 118 356 139 c 1
 344 139 l 1
 346 116 348 95 350 74 c 0
 351 57 353 39 354 20 c 0
 355 2 356 -12 356 -23 c 2
 356 -492 l 1
 174 -492 l 1
 174 1098 l 1
 322 1098 l 1
 348 950 l 1
 356 950 l 1
 371 973 389 995 408 1016 c 0
 427 1036 450 1054 476 1068 c 0
 501 1084 530 1096 562 1104 c 0
 594 1114 630 1118 670 1118 c 0
 733 1118 790 1106 841 1082 c 0
 892 1058 936 1022 972 974 c 0
 1009 927 1037 868 1057 797 c 0
 1077 726 1087 644 1087 551 c 0
 1087 457 1077 374 1057 304 c 0
 1037 232 1009 173 972 125 c 0
 936 77 892 41 841 16 c 0
 790 -8 733 -20 670 -20 c 0
635 967 m 0
 584 967 542 959 506 944 c 0
 472 929 443 905 422 874 c 0
 400 843 384 804 374 757 c 0
 363 710 357 655 356 592 c 2
 356 551 l 2
 356 484 360 424 370 372 c 0
 378 319 394 275 416 240 c 0
 437 204 466 177 502 158 c 0
 538 140 583 131 637 131 c 0
 727 131 793 167 836 240 c 0
 878 313 899 417 899 553 c 0
 899 692 878 795 836 864 c 0
 793 933 726 967 635 967 c 0
EndSplineSet
EndChar

StartChar: q
Encoding: 113 113 82
Width: 1200
Flags: W
LayerCount: 2
Fore
SplineSet
565 131 m 0
 616 131 658 139 694 154 c 0
 728 169 757 193 778 224 c 0
 800 255 816 294 826 342 c 0
 837 388 843 443 844 506 c 2
 844 547 l 2
 844 614 840 674 830 726 c 0
 822 779 806 823 784 858 c 0
 763 894 734 921 698 940 c 0
 662 958 617 967 563 967 c 0
 473 967 407 931 364 858 c 0
 322 785 301 681 301 545 c 0
 301 406 322 302 364 234 c 0
 407 165 474 131 565 131 c 0
530 -20 m 0
 468 -20 411 -8 360 16 c 0
 309 40 265 76 228 124 c 0
 191 171 163 230 143 301 c 0
 123 372 113 454 113 547 c 0
 113 641 123 724 143 794 c 0
 163 866 191 925 228 973 c 0
 265 1021 309 1057 360 1082 c 0
 411 1106 468 1118 530 1118 c 0
 569 1118 605 1114 637 1104 c 0
 669 1096 698 1084 723 1068 c 0
 748 1054 771 1036 791 1016 c 0
 811 995 829 973 844 950 c 1
 852 950 l 1
 879 1098 l 1
 1026 1098 l 1
 1026 -492 l 1
 844 -492 l 1
 844 -23 l 2
 844 -10 845 6 846 25 c 0
 847 44 849 63 850 81 c 0
 852 102 854 124 856 147 c 1
 844 147 l 1
 829 124 812 103 792 82 c 0
 773 62 750 44 724 29 c 0
 699 14 670 2 638 -7 c 0
 606 -16 570 -20 530 -20 c 0
EndSplineSet
EndChar

StartChar: r
Encoding: 114 114 83
Width: 817
Flags: W
LayerCount: 2
Fore
SplineSet
649 1118 m 0
 668 1118 690 1117 714 1116 c 0
 738 1114 759 1111 776 1108 c 1
 752 940 l 1
 733 943 714 946 694 948 c 0
 675 951 656 952 639 952 c 0
 597 952 559 944 524 926 c 0
 489 910 460 885 434 854 c 0
 410 822 390 784 376 740 c 0
 363 695 356 646 356 592 c 2
 356 0 l 1
 174 0 l 1
 174 1098 l 1
 322 1098 l 1
 344 897 l 1
 352 897 l 1
 369 926 386 953 406 980 c 0
 424 1007 446 1030 470 1050 c 0
 493 1071 520 1087 549 1100 c 0
 578 1112 612 1118 649 1118 c 0
EndSplineSet
EndChar

StartChar: s
Encoding: 115 115 84
Width: 924
Flags: W
LayerCount: 2
Fore
SplineSet
831 301 m 0
 831 248 821 201 802 161 c 0
 783 121 755 88 718 60 c 0
 682 34 638 13 587 0 c 0
 536 -13 478 -20 414 -20 c 0
 341 -20 279 -14 227 -2 c 0
 175 9 129 26 90 49 c 1
 90 215 l 1
 111 204 134 194 159 184 c 0
 184 173 211 164 239 156 c 0
 267 148 296 142 326 136 c 0
 355 132 385 129 414 129 c 0
 457 129 494 133 524 140 c 0
 555 147 580 158 598 172 c 0
 618 185 631 202 640 222 c 0
 649 241 653 263 653 287 c 0
 653 308 650 326 643 343 c 0
 636 360 624 376 606 392 c 0
 589 409 565 425 534 442 c 0
 503 459 464 477 416 498 c 0
 368 519 325 539 286 559 c 0
 248 579 216 601 189 626 c 0
 162 651 142 679 128 712 c 0
 113 744 106 782 106 827 c 0
 106 874 115 915 134 952 c 0
 152 988 178 1018 211 1043 c 0
 244 1068 284 1086 331 1099 c 0
 378 1112 430 1118 487 1118 c 0
 552 1118 611 1111 664 1097 c 0
 718 1083 769 1065 817 1042 c 1
 754 895 l 1
 711 914 666 931 620 946 c 0
 575 960 528 967 481 967 c 0
 413 967 363 956 330 934 c 0
 297 911 281 879 281 838 c 0
 281 815 285 794 292 777 c 0
 300 760 313 743 332 728 c 0
 351 713 376 697 407 682 c 0
 438 666 477 648 524 629 c 0
 572 609 615 589 652 569 c 0
 690 549 722 526 749 502 c 0
 776 476 796 448 810 416 c 0
 824 384 831 346 831 301 c 0
EndSplineSet
EndChar

StartChar: t
Encoding: 116 116 85
Width: 694
Flags: W
LayerCount: 2
Fore
SplineSet
506 129 m 0
 518 129 532 130 546 131 c 0
 562 132 576 134 590 136 c 0
 604 138 617 140 628 143 c 0
 640 146 649 148 655 150 c 1
 655 12 l 1
 646 8 635 4 622 0 c 0
 609 -4 594 -8 578 -10 c 0
 562 -14 545 -16 528 -18 c 0
 511 -19 494 -20 477 -20 c 0
 436 -20 397 -15 362 -4 c 0
 327 7 296 25 270 51 c 0
 245 77 225 112 210 156 c 0
 195 201 188 257 188 324 c 2
 188 961 l 1
 33 961 l 1
 33 1042 l 1
 188 1120 l 1
 266 1350 l 1
 371 1350 l 1
 371 1098 l 1
 647 1098 l 1
 647 961 l 1
 371 961 l 1
 371 324 l 2
 371 259 382 211 402 178 c 0
 424 145 458 129 506 129 c 0
EndSplineSet
EndChar

StartChar: u
Encoding: 117 117 86
Width: 1206
Flags: W
LayerCount: 2
Fore
SplineSet
885 0 m 1
 858 147 l 1
 848 147 l 1
 831 118 812 94 788 72 c 0
 766 52 740 34 713 20 c 0
 686 7 657 -3 626 -10 c 0
 595 -17 564 -20 532 -20 c 0
 471 -20 418 -12 372 3 c 0
 326 18 288 42 257 75 c 0
 226 108 203 149 188 200 c 0
 172 251 164 311 164 381 c 2
 164 1098 l 1
 346 1098 l 1
 346 391 l 2
 346 304 364 239 399 196 c 0
 434 153 489 131 563 131 c 0
 617 131 662 140 699 157 c 0
 736 174 765 200 788 234 c 0
 810 267 826 309 836 358 c 0
 845 407 850 464 850 528 c 2
 850 1098 l 1
 1032 1098 l 1
 1032 0 l 1
 885 0 l 1
EndSplineSet
EndChar

StartChar: v
Encoding: 118 118 87
Width: 981
Flags: W
LayerCount: 2
Fore
SplineSet
375 0 m 1
 0 1098 l 1
 188 1098 l 1
 387 487 l 2
 394 465 403 437 413 402 c 0
 423 367 433 332 443 296 c 0
 453 260 462 226 470 194 c 0
 479 162 484 138 487 121 c 1
 494 121 l 1
 497 138 503 162 511 194 c 0
 519 226 528 260 538 296 c 0
 548 332 558 367 568 402 c 0
 578 437 587 465 594 487 c 2
 793 1098 l 1
 981 1098 l 1
 606 0 l 1
 375 0 l 1
EndSplineSet
EndChar

StartChar: w
Encoding: 119 119 88
Width: 1401
Flags: HW
LayerCount: 2
Fore
SplineSet
1276 745 m 0
 1276 622 1260 514 1228 420 c 0
 1196 328 1150 250 1089 188 c 0
 1028 125 954 78 866 47 c 0
 777 16 677 0 565 0 c 2
 199 0 l 1
 199 1462 l 1
 606 1462 l 2
 708 1462 800 1447 883 1416 c 0
 966 1385 1036 1340 1094 1280 c 0
 1152 1219 1197 1144 1228 1055 c 0
 1260 966 1276 862 1276 745 c 0
1079 739 m 0
 1079 836 1068 920 1046 992 c 0
 1024 1062 992 1121 950 1167 c 0
 908 1213 856 1247 795 1270 c 0
 734 1292 664 1303 586 1303 c 2
 385 1303 l 1
 385 160 l 1
 547 160 l 2
 723 160 856 209 945 306 c 0
 1034 403 1079 548 1079 739 c 0
EndSplineSet
EndChar

StartChar: x
Encoding: 120 120 89
Width: 1063
Flags: HW
LayerCount: 2
Fore
SplineSet
625 0 m 1
 438 0 l 1
 438 1298 l 1
 20 1298 l 1
 20 1462 l 1
 1042 1462 l 1
 1042 1298 l 1
 625 1298 l 1
 625 0 l 1
EndSplineSet
EndChar

StartChar: y
Encoding: 121 121 90
Width: 1001
Flags: W
LayerCount: 2
Fore
SplineSet
10 1098 m 1
 199 1098 l 1
 414 485 l 2
 423 458 433 430 442 401 c 0
 452 372 461 342 470 313 c 0
 478 284 485 255 491 228 c 0
 497 201 501 175 504 152 c 1
 510 152 l 1
 513 169 519 191 526 220 c 0
 533 249 542 279 550 312 c 0
 560 344 569 376 578 407 c 0
 588 438 597 465 604 487 c 2
 803 1098 l 1
 991 1098 l 1
 557 -143 l 2
 538 -197 518 -246 496 -288 c 0
 475 -332 450 -368 421 -398 c 0
 392 -428 359 -451 320 -468 c 0
 281 -484 235 -492 182 -492 c 0
 147 -492 117 -490 92 -486 c 0
 67 -483 45 -479 27 -475 c 1
 27 -330 l 1
 41 -333 59 -336 80 -338 c 0
 101 -341 124 -342 147 -342 c 0
 179 -342 207 -338 230 -330 c 0
 253 -323 274 -312 291 -297 c 0
 308 -282 323 -264 336 -243 c 0
 348 -222 359 -197 369 -170 c 2
 426 -10 l 1
 10 1098 l 1
EndSplineSet
EndChar

StartChar: z
Encoding: 122 122 91
Width: 1292
Flags: HW
LayerCount: 2
Fore
SplineSet
74 -492 m 1
 74 -377 l 1
 698 537 l 1
 90 1348 l 1
 90 1462 l 1
 1186 1462 l 1
 1186 1298 l 1
 350 1298 l 1
 920 539 l 1
 328 -328 l 1
 1251 -328 l 1
 1251 -492 l 1
 74 -492 l 1
EndSplineSet
EndChar

StartChar: braceleft
Encoding: 123 123 92
Width: 725
Flags: W
LayerCount: 2
Fore
SplineSet
500 -16 m 2
 500 -48 504 -74 512 -94 c 0
 520 -115 532 -131 546 -142 c 0
 562 -154 580 -162 602 -166 c 0
 623 -171 647 -173 674 -174 c 1
 674 -324 l 1
 623 -323 575 -318 532 -306 c 0
 488 -296 450 -278 418 -254 c 0
 387 -231 362 -201 344 -164 c 0
 326 -127 317 -83 317 -31 c 2
 317 303 l 2
 317 372 295 420 252 449 c 0
 208 478 144 492 61 492 c 1
 61 647 l 1
 144 647 208 661 252 690 c 0
 295 719 317 767 317 836 c 2
 317 1169 l 2
 317 1221 326 1265 344 1302 c 0
 362 1339 387 1369 418 1392 c 0
 450 1416 488 1434 532 1444 c 0
 575 1456 623 1461 674 1462 c 1
 674 1313 l 1
 647 1312 623 1310 602 1306 c 0
 580 1301 562 1293 546 1282 c 0
 532 1270 520 1254 512 1234 c 0
 504 1213 500 1187 500 1155 c 2
 500 823 l 2
 500 753 480 698 440 656 c 0
 401 616 343 588 266 575 c 1
 266 563 l 1
 343 550 401 523 440 482 c 0
 480 441 500 386 500 315 c 2
 500 -16 l 2
EndSplineSet
EndChar

StartChar: bar
Encoding: 124 124 93
Width: 1128
Flags: W
LayerCount: 2
Fore
SplineSet
489 1556 m 1
 639 1556 l 1
 639 -492 l 1
 489 -492 l 1
 489 1556 l 1
EndSplineSet
EndChar

StartChar: braceright
Encoding: 125 125 94
Width: 725
Flags: W
LayerCount: 2
Fore
SplineSet
225 315 m 2
 225 386 245 441 284 482 c 0
 324 523 382 550 459 563 c 1
 459 575 l 1
 382 588 324 616 284 656 c 0
 245 698 225 753 225 823 c 2
 225 1155 l 2
 225 1187 221 1213 213 1234 c 0
 205 1254 194 1270 178 1282 c 0
 164 1293 145 1301 124 1306 c 0
 102 1310 78 1312 51 1313 c 1
 51 1462 l 1
 102 1461 150 1456 194 1444 c 0
 237 1434 275 1416 306 1392 c 0
 338 1369 363 1339 381 1302 c 0
 399 1265 408 1221 408 1169 c 2
 408 836 l 2
 408 801 414 772 424 748 c 0
 436 724 452 704 474 690 c 0
 495 674 522 664 554 657 c 0
 586 650 623 647 664 647 c 1
 664 492 l 1
 581 492 517 478 474 449 c 0
 430 420 408 372 408 303 c 2
 408 -31 l 2
 408 -83 399 -127 381 -164 c 0
 363 -201 338 -231 306 -254 c 0
 275 -278 237 -296 194 -306 c 0
 150 -318 102 -323 51 -324 c 1
 51 -174 l 1
 78 -173 102 -171 124 -166 c 0
 145 -162 164 -154 178 -142 c 0
 194 -131 205 -115 213 -94 c 0
 221 -74 225 -48 225 -16 c 2
 225 315 l 2
EndSplineSet
EndChar

StartChar: asciitilde
Encoding: 126 126 95
Width: 1128
Flags: W
LayerCount: 2
Fore
SplineSet
530 651 m 0
 505 662 484 671 466 678 c 0
 447 685 430 691 416 696 c 0
 400 700 386 703 372 704 c 0
 359 706 345 707 330 707 c 0
 311 707 292 704 272 698 c 0
 252 691 232 682 212 672 c 0
 193 660 174 648 155 633 c 0
 136 618 119 603 102 586 c 1
 102 748 l 1
 169 820 251 856 350 856 c 0
 369 856 387 855 404 854 c 0
 421 852 438 849 456 844 c 0
 475 840 495 834 518 826 c 0
 540 817 567 806 598 793 c 0
 623 782 644 773 662 766 c 0
 681 759 698 753 714 748 c 0
 729 744 744 741 757 740 c 0
 770 738 784 737 799 737 c 0
 818 737 837 740 857 746 c 0
 877 753 897 762 916 772 c 0
 936 784 955 796 974 811 c 0
 993 826 1010 841 1026 858 c 1
 1026 696 l 1
 960 624 877 588 778 588 c 0
 759 588 741 589 724 590 c 0
 707 592 690 595 672 600 c 0
 653 604 633 610 610 618 c 0
 588 627 561 638 530 651 c 0
EndSplineSet
EndChar

StartChar: exclamdown
Encoding: 161 161 97
Width: 1401
Flags: HW
LayerCount: 2
Fore
SplineSet
47 805 m 1
 199 805 l 1
 199 1462 l 1
 606 1462 l 2
 708 1462 800 1447 883 1416 c 0
 966 1385 1036 1340 1094 1280 c 0
 1152 1219 1197 1144 1228 1055 c 0
 1260 966 1276 862 1276 745 c 0
 1276 622 1260 514 1228 420 c 0
 1196 328 1150 250 1089 188 c 0
 1028 125 954 78 866 47 c 0
 777 16 677 0 565 0 c 2
 199 0 l 1
 199 643 l 1
 47 643 l 1
 47 805 l 1
1079 739 m 0
 1079 836 1068 920 1046 992 c 0
 1024 1062 992 1121 950 1167 c 0
 908 1213 856 1247 795 1270 c 0
 734 1292 664 1303 586 1303 c 2
 385 1303 l 1
 385 805 l 1
 721 805 l 1
 721 643 l 1
 385 643 l 1
 385 160 l 1
 547 160 l 2
 723 160 856 209 945 306 c 0
 1034 403 1079 548 1079 739 c 0
EndSplineSet
EndChar

StartChar: cent
Encoding: 162 162 98
Width: 1128
Flags: HW
LayerCount: 2
Fore
SplineSet
666 1481 m 0
 737 1481 801 1474 859 1458 c 0
 917 1444 968 1424 1012 1401 c 1
 946 1257 l 1
 909 1276 866 1293 820 1308 c 0
 772 1322 724 1329 674 1329 c 0
 642 1329 612 1324 585 1316 c 0
 558 1306 534 1292 514 1272 c 0
 494 1253 478 1227 468 1196 c 0
 456 1165 451 1127 451 1083 c 2
 451 788 l 1
 827 788 l 1
 827 651 l 1
 451 651 l 1
 451 440 l 2
 451 399 447 363 440 334 c 0
 432 304 422 278 408 257 c 0
 396 236 380 218 364 204 c 0
 346 189 329 177 311 166 c 1
 1059 166 l 1
 1059 0 l 1
 68 0 l 1
 68 154 l 1
 97 161 124 172 148 186 c 0
 173 199 194 217 212 240 c 0
 229 263 243 290 253 322 c 0
 263 355 268 393 268 438 c 2
 268 651 l 1
 70 651 l 1
 70 788 l 1
 268 788 l 1
 268 1112 l 2
 268 1170 278 1222 298 1268 c 0
 317 1313 344 1352 380 1384 c 0
 414 1415 456 1439 505 1456 c 0
 554 1473 607 1481 666 1481 c 0
EndSplineSet
EndChar

StartChar: sterling
Encoding: 163 163 99
Width: 1206
Flags: HW
LayerCount: 2
Fore
SplineSet
860 0 m 1
 860 707 l 2
 860 794 842 859 808 902 c 0
 772 945 718 967 643 967 c 0
 589 967 544 958 507 941 c 0
 470 924 441 898 418 864 c 0
 396 830 380 788 370 739 c 0
 361 690 356 633 356 569 c 2
 356 0 l 1
 174 0 l 1
 174 1556 l 1
 356 1556 l 1
 356 1094 l 1
 348 950 l 1
 358 950 l 1
 375 979 394 1004 418 1024 c 0
 440 1046 466 1063 493 1077 c 0
 520 1091 549 1101 580 1108 c 0
 611 1115 642 1118 674 1118 c 0
 796 1118 888 1086 950 1022 c 0
 1011 959 1042 857 1042 717 c 2
 1042 0 l 1
 860 0 l 1
EndSplineSet
EndChar

StartChar: currency
Encoding: 164 164 100
Width: 1206
Flags: HW
LayerCount: 2
Fore
SplineSet
860 0 m 1
 860 707 l 2
 860 793.666666667 842.5 858.666666667 807.5 902 c 128
 772.5 945.333333333 717.666666667 967 643 967 c 0
 589 967 543.666666667 958.333333333 507 941 c 128
 470.333333333 923.666666667 440.833333333 898 418.5 864 c 128
 396.166666667 830 380.166666667 788.333333333 370.5 739 c 128
 360.833333333 689.666666667 356 633 356 569 c 2
 356 0 l 1
 174 0 l 1
 174 1556 l 1
 356 1556 l 1
 356 1094 l 1
 348 950 l 1
 358 950 l 1
 374.666666667 978.666666667 394.5 1003.5 417.5 1024.5 c 128
 440.5 1045.5 465.666666667 1063 493 1077 c 128
 520.333333333 1091 549.333333333 1101.33333333 580 1108 c 128
 610.666666667 1114.66666667 642 1118 674 1118 c 0
 796 1118 887.833333333 1086.16666667 949.5 1022.5 c 128
 1011.16666667 958.833333333 1042 857 1042 717 c 2
 1042 0 l 1
 860 0 l 1
EndSplineSet
EndChar

StartChar: yen
Encoding: 165 165 101
Width: 1401
Flags: HW
LayerCount: 2
Fore
SplineSet
47 805 m 1
 199 805 l 1
 199 1462 l 1
 606 1462 l 2
 708 1462 800 1447 883 1416 c 0
 966 1385 1036 1340 1094 1280 c 0
 1152 1219 1197 1144 1228 1055 c 0
 1260 966 1276 862 1276 745 c 0
 1276 622 1260 514 1228 420 c 0
 1196 328 1150 250 1089 188 c 0
 1028 125 954 78 866 47 c 0
 777 16 677 0 565 0 c 2
 199 0 l 1
 199 643 l 1
 47 643 l 1
 47 805 l 1
1079 739 m 0
 1079 836 1068 920 1046 992 c 0
 1024 1062 992 1121 950 1167 c 0
 908 1213 856 1247 795 1270 c 0
 734 1292 664 1303 586 1303 c 2
 385 1303 l 1
 385 805 l 1
 721 805 l 1
 721 643 l 1
 385 643 l 1
 385 160 l 1
 547 160 l 2
 723 160 856 209 945 306 c 0
 1034 403 1079 548 1079 739 c 0
EndSplineSet
EndChar

StartChar: brokenbar
Encoding: 166 166 102
Width: 1257
Flags: HW
LayerCount: 2
Fore
SplineSet
356 1098 m 1
 356 643 l 1
 901 643 l 1
 901 1098 l 1
 1083 1098 l 1
 1083 0 l 1
 901 0 l 1
 901 489 l 1
 356 489 l 1
 356 0 l 1
 174 0 l 1
 174 1098 l 1
 356 1098 l 1
EndSplineSet
EndChar

StartChar: section
Encoding: 167 167 103
Width: 1436
Flags: HW
LayerCount: 2
Fore
SplineSet
1237 0 m 1
 1051 0 l 1
 1051 682 l 1
 385 682 l 1
 385 0 l 1
 199 0 l 1
 199 1462 l 1
 385 1462 l 1
 385 846 l 1
 1051 846 l 1
 1051 1462 l 1
 1237 1462 l 1
 1237 0 l 1
EndSplineSet
EndChar

StartChar: dieresis
Encoding: 168 168 104
Width: 1063
Flags: HW
LayerCount: 2
Fore
SplineSet
625 0 m 1
 438 0 l 1
 438 1298 l 1
 20 1298 l 1
 20 1462 l 1
 1042 1462 l 1
 1042 1298 l 1
 625 1298 l 1
 625 0 l 1
EndSplineSet
EndChar

StartChar: copyright
Encoding: 169 169 105
Width: 1206
Flags: HW
LayerCount: 2
Fore
SplineSet
759 1243 m 0
 732 1243 706 1249 679 1260 c 0
 653 1272 627 1285 602 1300 c 0
 577 1314 552 1327 529 1338 c 0
 506 1350 483 1356 462 1356 c 0
 432 1356 409 1347 393 1330 c 0
 377 1312 364 1282 355 1241 c 1
 251 1241 l 1
 254 1281 261 1317 273 1350 c 0
 283 1383 298 1410 315 1434 c 0
 333 1456 354 1474 379 1486 c 0
 404 1499 431 1505 462 1505 c 0
 490 1505 517 1499 545 1488 c 0
 571 1476 598 1463 623 1449 c 0
 648 1435 673 1422 695 1410 c 0
 719 1399 740 1393 759 1393 c 0
 789 1393 812 1402 827 1419 c 0
 842 1436 855 1466 865 1507 c 1
 970 1507 l 1
 967 1467 959 1431 949 1398 c 0
 937 1366 923 1338 905 1316 c 0
 888 1292 867 1275 842 1262 c 0
 817 1249 790 1243 759 1243 c 0
EndSplineSet
Refer: 79 110 N 1 0 0 1 0 0 3
EndChar

StartChar: ordfeminine
Encoding: 170 170 106
Width: 1163
Flags: HW
LayerCount: 2
Fore
SplineSet
1163 0 m 1
 965 0 l 1
 672 922 l 2
 651.333333333 986.666666667 633.333333333 1047 618 1103 c 128
 602.666666667 1159 590 1212 580 1262 c 1
 568.666666667 1212 556 1159 542 1103 c 128
 528 1047 511.333333333 988.666666667 492 928 c 2
 197 0 l 1
 0 0 l 1
 487 1462 l 1
 674 1462 l 1
 1163 0 l 1
EndSplineSet
EndChar

StartChar: guillemotleft
Encoding: 171 171 107
Width: 903
Flags: HW
LayerCount: 2
Fore
SplineSet
862 944 m 1
 543 944 l 1
 543 0 l 1
 360 0 l 1
 360 944 l 1
 41 944 l 1
 41 1098 l 1
 862 1098 l 1
 862 944 l 1
EndSplineSet
EndChar

StartChar: logicalnot
Encoding: 172 172 108
Width: 1292
Flags: HW
LayerCount: 2
Fore
SplineSet
74 -492 m 1
 74 -377 l 1
 698 537 l 1
 90 1348 l 1
 90 1462 l 1
 1186 1462 l 1
 1186 1298 l 1
 350 1298 l 1
 920 539 l 1
 328 -328 l 1
 1251 -328 l 1
 1251 -492 l 1
 74 -492 l 1
EndSplineSet
EndChar

StartChar: uni00AD
Encoding: 173 173 109
Width: 793
Flags: HW
LayerCount: 2
Fore
SplineSet
643 1556 m 0
 665.666666667 1556 689.5 1554.5 714.5 1551.5 c 128
 739.5 1548.5 759.333333333 1544 774 1538 c 1
 774 1391 l 1
 762 1397 745.833333333 1402.83333333 725.5 1408.5 c 128
 705.166666667 1414.16666667 683 1417 659 1417 c 0
 625 1417 597 1410.5 575 1397.5 c 128
 553 1384.5 535.5 1367.16666667 522.5 1345.5 c 128
 509.5 1323.83333333 500.333333333 1299 495 1271 c 128
 489.666666667 1243 487 1214 487 1184 c 2
 487 -137 l 2
 487 -199.666666667 478.666666667 -253.333333333 462 -298 c 128
 445.333333333 -342.666666667 422.166666667 -379.333333333 392.5 -408 c 128
 362.833333333 -436.666666667 327.333333333 -457.833333333 286 -471.5 c 128
 244.666666667 -485.166666667 199.333333333 -492 150 -492 c 0
 126 -492 101.5 -490.166666667 76.5 -486.5 c 128
 51.5 -482.833333333 31.3333333333 -478.333333333 16 -473 c 1
 16 -326 l 1
 29.3333333333 -331.333333333 46.3333333333 -336.666666667 67 -342 c 128
 87.6666666667 -347.333333333 109.666666667 -350 133 -350 c 0
 167 -350 195.5 -343.833333333 218.5 -331.5 c 128
 241.5 -319.166666667 260 -302.333333333 274 -281 c 128
 288 -259.666666667 298 -235 304 -207 c 128
 310 -179 313 -149 313 -117 c 2
 313 1202 l 2
 313 1264.66666667 320.833333333 1318.33333333 336.5 1363 c 128
 352.166666667 1407.66666667 374.5 1444.33333333 403.5 1473 c 128
 432.5 1501.66666667 467.166666667 1522.66666667 507.5 1536 c 128
 547.833333333 1549.33333333 593 1556 643 1556 c 0
EndSplineSet
EndChar

StartChar: registered
Encoding: 174 174 110
Width: 1128
Flags: HW
LayerCount: 2
Fore
SplineSet
350 442 m 1
 102 442 l 1
 102 592 l 1
 420 592 l 1
 541 852 l 1
 102 852 l 1
 102 1001 l 1
 610 1001 l 1
 743 1284 l 1
 881 1225 l 1
 776 1001 l 1
 1026 1001 l 1
 1026 852 l 1
 707 852 l 1
 584 592 l 1
 1026 592 l 1
 1026 442 l 1
 514 442 l 1
 385 164 l 1
 248 221 l 1
 350 442 l 1
EndSplineSet
EndChar

StartChar: overscore
Encoding: 175 175 111
Width: 1128
Flags: HW
LayerCount: 2
Fore
SplineSet
530 444 m 0
 505.333333333 454.666666667 483.833333333 463.666666667 465.5 471 c 128
 447.166666667 478.333333333 430.5 484.166666667 415.5 488.5 c 128
 400.5 492.833333333 386.166666667 495.833333333 372.5 497.5 c 128
 358.833333333 499.166666667 344.666666667 500 330 500 c 0
 311.333333333 500 292 496.833333333 272 490.5 c 128
 252 484.166666667 232.166666667 475.5 212.5 464.5 c 128
 192.833333333 453.5 173.666666667 440.666666667 155 426 c 128
 136.333333333 411.333333333 118.666666667 395.666666667 102 379 c 1
 102 541 l 1
 168.666666667 613 251.333333333 649 350 649 c 0
 369.333333333 649 387.333333333 648.166666667 404 646.5 c 128
 420.666666667 644.833333333 438.166666667 641.833333333 456.5 637.5 c 128
 474.833333333 633.166666667 495.166666667 626.833333333 517.5 618.5 c 128
 539.833333333 610.166666667 566.666666667 599.333333333 598 586 c 0
 622.666666667 575.333333333 644.166666667 566.333333333 662.5 559 c 128
 680.833333333 551.666666667 697.833333333 545.833333333 713.5 541.5 c 128
 729.166666667 537.166666667 743.666666667 534.166666667 757 532.5 c 128
 770.333333333 530.833333333 784.333333333 530 799 530 c 0
 817.666666667 530 837 533.166666667 857 539.5 c 128
 877 545.833333333 896.833333333 554.5 916.5 565.5 c 128
 936.166666667 576.5 955.333333333 589.333333333 974 604 c 128
 992.666666667 618.666666667 1010 634.333333333 1026 651 c 1
 1026 489 l 1
 960 417 877.333333333 381 778 381 c 0
 758.666666667 381 740.666666667 381.833333333 724 383.5 c 128
 707.333333333 385.166666667 689.833333333 388.166666667 671.5 392.5 c 128
 653.166666667 396.833333333 632.833333333 403.166666667 610.5 411.5 c 128
 588.166666667 419.833333333 561.333333333 430.666666667 530 444 c 0
530 854 m 0
 505.333333333 864.666666667 483.833333333 873.5 465.5 880.5 c 128
 447.166666667 887.5 430.5 893.166666667 415.5 897.5 c 128
 400.5 901.833333333 386.166666667 904.833333333 372.5 906.5 c 128
 358.833333333 908.166666667 344.666666667 909 330 909 c 0
 311.333333333 909 292 905.833333333 272 899.5 c 128
 252 893.166666667 232.166666667 884.666666667 212.5 874 c 128
 192.833333333 863.333333333 173.666666667 850.666666667 155 836 c 128
 136.333333333 821.333333333 118.666666667 805.333333333 102 788 c 1
 102 950 l 1
 168.666666667 1022.66666667 251.333333333 1059 350 1059 c 0
 369.333333333 1059 387.333333333 1058.16666667 404 1056.5 c 128
 420.666666667 1054.83333333 438.166666667 1051.66666667 456.5 1047 c 128
 474.833333333 1042.33333333 495.166666667 1035.83333333 517.5 1027.5 c 128
 539.833333333 1019.16666667 566.666666667 1008.33333333 598 995 c 0
 622.666666667 984.333333333 644.166666667 975.5 662.5 968.5 c 128
 680.833333333 961.5 697.833333333 955.833333333 713.5 951.5 c 128
 729.166666667 947.166666667 743.666666667 944.166666667 757 942.5 c 128
 770.333333333 940.833333333 784.333333333 940 799 940 c 0
 817.666666667 940 837 943.166666667 857 949.5 c 128
 877 955.833333333 896.833333333 964.333333333 916.5 975 c 128
 936.166666667 985.666666667 955.333333333 998.5 974 1013.5 c 128
 992.666666667 1028.5 1010 1044.33333333 1026 1061 c 1
 1026 899 l 1
 961.333333333 827 878.666666667 791 778 791 c 0
 758.666666667 791 740.666666667 791.833333333 724 793.5 c 128
 707.333333333 795.166666667 689.833333333 798.166666667 671.5 802.5 c 128
 653.166666667 806.833333333 632.833333333 813.166666667 610.5 821.5 c 128
 588.166666667 829.833333333 561.333333333 840.666666667 530 854 c 0
EndSplineSet
EndChar

StartChar: degree
Encoding: 176 176 112
Width: 1128
Flags: HW
LayerCount: 2
Fore
SplineSet
1026 238 m 1
 102 662 l 1
 102 764 l 1
 1026 1245 l 1
 1026 1085 l 1
 291 721 l 1
 1026 399 l 1
 1026 238 l 1
102 0 m 1
 102 150 l 1
 1026 150 l 1
 1026 0 l 1
 102 0 l 1
EndSplineSet
EndChar

StartChar: plusminus
Encoding: 177 177 113
Width: 1128
Flags: HW
LayerCount: 2
Fore
SplineSet
102 399 m 1
 840 721 l 1
 102 1083 l 1
 102 1245 l 1
 1026 764 l 1
 1026 662 l 1
 102 238 l 1
 102 399 l 1
102 0 m 1
 102 150 l 1
 1026 150 l 1
 1026 0 l 1
 102 0 l 1
EndSplineSet
EndChar

StartChar: threesuperior
Encoding: 179 179 115
Width: 1716
Flags: HW
LayerCount: 2
Fore
SplineSet
1616 597 m 1
 1223 204 l 1
 1103 324 l 1
 1336 557 l 1
 117 557 l 1
 117 727 l 1
 1336 727 l 1
 1103 960 l 1
 1223 1080 l 1
 1616 687 l 1
 1616 597 l 1
EndSplineSet
EndChar

StartChar: acute
Encoding: 180 180 116
Width: 1317
Flags: HW
LayerCount: 2
Fore
SplineSet
522 846 m 1
 672 846 l 2
 773.333333333 846 858.5 835 927.5 813 c 128
 996.5 791 1052 761.166666667 1094 723.5 c 128
 1136 685.833333333 1166.16666667 641.666666667 1184.5 591 c 128
 1202.83333333 540.333333333 1212 486 1212 428 c 0
 1212 363.333333333 1202 304.666666667 1182 252 c 128
 1162 199.333333333 1131 154.333333333 1089 117 c 128
 1047 79.6666666667 993.666666667 50.8333333333 929 30.5 c 128
 864.333333333 10.1666666667 787.333333333 0 698 0 c 2
 336 0 l 1
 336 1120 l 1
 20 1120 l 1
 20 1284 l 1
 336 1284 l 1
 336 1556 l 1
 522 1556 l 1
 522 1284 l 1
 899 1284 l 1
 899 1120 l 1
 522 1120 l 1
 522 846 l 1
522 160 m 1
 682 160 l 2
 798 160 883.333333333 182 938 226 c 128
 992.666666667 270 1020 337.333333333 1020 428 c 0
 1020 474.666666667 1012.33333333 514.166666667 997 546.5 c 128
 981.666666667 578.833333333 958.833333333 605 928.5 625 c 128
 898.166666667 645 859.833333333 659.5 813.5 668.5 c 128
 767.166666667 677.5 713 682 651 682 c 2
 522 682 l 1
 522 160 l 1
EndSplineSet
EndChar

StartChar: mu
Encoding: 181 181 117
Width: 1245
Flags: HW
LayerCount: 2
Fore
SplineSet
739 944 m 1
 440 944 l 1
 440 647 l 1
 717 647 l 2
 857.666666667 647 962.166666667 621 1030.5 569 c 128
 1098.83333333 517 1133 439.333333333 1133 336 c 0
 1133 284.666666667 1125.16666667 238.333333333 1109.5 197 c 128
 1093.83333333 155.666666667 1069.16666667 120.333333333 1035.5 91 c 128
 1001.83333333 61.6666666667 958.5 39.1666666667 905.5 23.5 c 128
 852.5 7.83333333333 788.333333333 0 713 0 c 2
 258 0 l 1
 258 944 l 1
 20 944 l 1
 20 1098 l 1
 258 1098 l 1
 258 1319 l 1
 440 1319 l 1
 440 1098 l 1
 739 1098 l 1
 739 944 l 1
440 494 m 1
 440 150 l 1
 700 150 l 2
 736.666666667 150 770.666666667 152.833333333 802 158.5 c 128
 833.333333333 164.166666667 860.166666667 173.833333333 882.5 187.5 c 128
 904.833333333 201.166666667 922.333333333 219 935 241 c 128
 947.666666667 263 954 290 954 322 c 0
 954 354.666666667 948.5 382 937.5 404 c 128
 926.5 426 910.166666667 443.666666667 888.5 457 c 128
 866.833333333 470.333333333 840 479.833333333 808 485.5 c 128
 776 491.166666667 738.666666667 494 696 494 c 2
 440 494 l 1
EndSplineSet
EndChar

StartChar: paragraph
Encoding: 182 182 118
Width: 1128
Flags: HW
LayerCount: 2
Fore
SplineSet
666 1481 m 0
 736.666666667 1481 801 1473.5 859 1458.5 c 128
 917 1443.5 968 1424.33333333 1012 1401 c 1
 946 1257 l 1
 908.666666667 1276.33333333 866.5 1293.16666667 819.5 1307.5 c 128
 772.5 1321.83333333 724 1329 674 1329 c 0
 642 1329 612.333333333 1324.5 585 1315.5 c 128
 557.666666667 1306.5 534 1292.16666667 514 1272.5 c 128
 494 1252.83333333 478.5 1227.33333333 467.5 1196 c 128
 456.5 1164.66666667 451 1127 451 1083 c 2
 451 788 l 1
 827 788 l 1
 827 651 l 1
 451 651 l 1
 451 440 l 2
 451 398.666666667 447.166666667 363.166666667 439.5 333.5 c 128
 431.833333333 303.833333333 421.5 278.333333333 408.5 257 c 128
 395.5 235.666666667 380.5 217.833333333 363.5 203.5 c 128
 346.5 189.166666667 329 176.666666667 311 166 c 1
 1059 166 l 1
 1059 0 l 1
 68 0 l 1
 68 154 l 1
 97.3333333333 161.333333333 124.166666667 171.833333333 148.5 185.5 c 128
 172.833333333 199.166666667 193.833333333 217.333333333 211.5 240 c 128
 229.166666667 262.666666667 243 290.166666667 253 322.5 c 128
 263 354.833333333 268 393.333333333 268 438 c 2
 268 651 l 1
 70 651 l 1
 70 788 l 1
 268 788 l 1
 268 1112 l 2
 268 1170 277.833333333 1221.83333333 297.5 1267.5 c 128
 317.166666667 1313.16666667 344.5 1351.83333333 379.5 1383.5 c 128
 414.5 1415.16666667 456.333333333 1439.33333333 505 1456 c 128
 553.666666667 1472.66666667 607.333333333 1481 666 1481 c 0
EndSplineSet
EndChar

StartChar: periodcentered
Encoding: 183 183 119
Width: 549
Flags: W
LayerCount: 2
Fore
SplineSet
147 723 m 0
 147 748 150 770 157 788 c 0
 164 805 173 820 184 830 c 0
 195 842 209 850 224 854 c 0
 239 860 256 862 274 862 c 0
 291 862 308 860 324 854 c 0
 339 850 353 842 364 830 c 0
 375 820 384 805 391 788 c 0
 398 770 401 748 401 723 c 0
 401 698 398 677 391 660 c 0
 384 643 375 628 364 617 c 0
 353 606 339 597 324 592 c 0
 308 587 291 584 274 584 c 0
 256 584 239 587 224 592 c 0
 209 597 195 606 184 617 c 0
 173 628 164 643 157 660 c 0
 150 677 147 698 147 723 c 0
EndSplineSet
EndChar
